<svg width="24" height="24" viewBox="0 0 24 24" fill="none" xmlns="http://www.w3.org/2000/svg">
<mask id="mask0_0_4334" style="mask-type:luminance" maskUnits="userSpaceOnUse" x="3" y="5" width="18" height="14">
<path fill-rule="evenodd" clip-rule="evenodd" d="M10.7071 5.29289C11.0976 5.68342 11.0976 6.31658 10.7071 6.70711L6.41421 11H20C20.5523 11 21 11.4477 21 12C21 12.5523 20.5523 13 20 13H6.41421L10.7071 17.2929C11.0976 17.6834 11.0976 18.3166 10.7071 18.7071C10.3166 19.0976 9.68342 19.0976 9.29289 18.7071L3.29326 12.7075M3.29326 11.2925L9.29289 5.29289C9.68342 4.90237 10.3166 4.90237 10.7071 5.29289M3.29326 11.2925C3.29243 11.2934 3.2916 11.2942 3.29078 11.295C3.19595 11.3904 3.12432 11.5001 3.07588 11.6172C3.02699 11.7351 3 11.8644 3 12C3 12.1356 3.02699 12.2649 3.07588 12.3828C3.12432 12.4999 3.19595 12.6096 3.29078 12.705" fill="white"/>
</mask>
<g mask="url(#mask0_0_4334)">
<rect width="24" height="24" fill="black"/>
</g>
</svg>
