<svg width="24" height="24" viewBox="0 0 24 24" fill="none" xmlns="http://www.w3.org/2000/svg">
<mask id="mask0_0_4495" style="mask-type:luminance" maskUnits="userSpaceOnUse" x="5" y="3" width="14" height="18">
<path fill-rule="evenodd" clip-rule="evenodd" d="M5.29289 13.2929C5.68342 12.9024 6.31658 12.9024 6.70711 13.2929L11 17.5858L11 4C11 3.44772 11.4477 3 12 3C12.5523 3 13 3.44772 13 4L13 17.5858L17.2929 13.2929C17.6834 12.9024 18.3166 12.9024 18.7071 13.2929C19.0976 13.6834 19.0976 14.3166 18.7071 14.7071L12.7071 20.7071C12.524 20.8902 12.2877 20.9874 12.048 20.9989C12.032 20.9996 12.016 21 12 21M11.6172 20.9241C11.4993 20.8753 11.3888 20.803 11.2929 20.7071L5.29289 14.7071C4.90237 14.3166 4.90237 13.6834 5.29289 13.2929M11.6172 20.9241C11.7324 20.9719 11.8585 20.9988 11.9908 21L11.6172 20.9241Z" fill="white"/>
</mask>
<g mask="url(#mask0_0_4495)">
<rect width="24" height="24" fill="black"/>
</g>
</svg>
