<svg width="24" height="24" viewBox="0 0 24 24" fill="none" xmlns="http://www.w3.org/2000/svg">
<mask id="mask0_0_4339" style="mask-type:luminance" maskUnits="userSpaceOnUse" x="5" y="3" width="14" height="18">
<path fill-rule="evenodd" clip-rule="evenodd" d="M18.7071 10.7071C18.3166 11.0976 17.6834 11.0976 17.2929 10.7071L13 6.41421L13 20C13 20.5523 12.5523 21 12 21C11.4477 21 11 20.5523 11 20L11 6.41421L6.70711 10.7071C6.31658 11.0976 5.68342 11.0976 5.29289 10.7071C4.90237 10.3166 4.90237 9.68342 5.29289 9.29289L11.2925 3.29326M12.7075 3.29326L18.7071 9.29289C19.0976 9.68342 19.0976 10.3166 18.7071 10.7071M12.7075 3.29326C12.7066 3.29243 12.7058 3.2916 12.705 3.29078C12.6096 3.19595 12.4999 3.12432 12.3828 3.07588C12.2649 3.02699 12.1356 3 12 3C11.8644 3 11.7351 3.02699 11.6172 3.07588C11.5001 3.12432 11.3904 3.19595 11.295 3.29078" fill="white"/>
</mask>
<g mask="url(#mask0_0_4339)">
<rect width="24" height="24" fill="black"/>
</g>
</svg>
