<svg width="24" height="24" viewBox="0 0 24 24" fill="none" xmlns="http://www.w3.org/2000/svg">
<mask id="mask0_0_4700" style="mask-type:luminance" maskUnits="userSpaceOnUse" x="2" y="1" width="20" height="22">
<path fill-rule="evenodd" clip-rule="evenodd" d="M16.1471 1C16.5717 1 16.9163 1.34381 16.9163 1.76744L16.9168 2.63496C18.4144 2.73739 19.6581 3.24915 20.5383 4.12921C21.4994 5.09207 22.005 6.47653 21.9999 8.13727V17.4724C21.9999 20.8819 19.8296 23 16.3373 23H7.66252C4.17024 23 2 20.8522 2 17.3946V8.13522C2 4.91935 3.93543 2.85509 7.09196 2.63531L7.09257 1.76744C7.09257 1.34381 7.43719 1 7.8618 1C8.28641 1 8.63102 1.34381 8.63102 1.76744L8.63072 2.61571H15.3773L15.3779 1.76744C15.3779 1.34381 15.7225 1 16.1471 1ZM20.4614 10.111H3.53845V17.3946C3.53845 20.0203 5.00305 21.4651 7.66252 21.4651H16.3373C18.9968 21.4651 20.4615 20.0469 20.4615 17.4724L20.4614 10.111ZM15.3773 4.15059H8.63072L8.63102 5.13495C8.63102 5.55858 8.28641 5.90239 7.8618 5.90239C7.43719 5.90239 7.09257 5.55858 7.09257 5.13495L7.09206 4.17382C4.79438 4.36639 3.53845 5.75591 3.53845 8.13522V8.57614H20.4614L20.4615 8.13522C20.4655 6.87151 20.125 5.88919 19.4491 5.21384C18.8558 4.62017 17.9885 4.2656 16.9172 4.17432L16.9163 5.13495C16.9163 5.55858 16.5717 5.90239 16.1471 5.90239C15.7225 5.90239 15.3779 5.55858 15.3779 5.13495L15.3773 4.15059Z" fill="white"/>
</mask>
<g mask="url(#mask0_0_4700)">
<rect width="24" height="24" fill="black"/>
</g>
</svg>
