<svg width="24" height="24" viewBox="0 0 24 24" fill="none" xmlns="http://www.w3.org/2000/svg">
<path fill-rule="evenodd" clip-rule="evenodd" d="M17.152 3.81794C16.745 3.12888 16.2911 2.65887 15.6491 2.39811C14.3422 1.86731 9.65795 1.86731 8.35005 2.39801C7.63632 2.68789 7.15534 3.23606 6.7132 4.05607L6.21715 5.02787L6.16059 5.11641L6.1508 5.1295L6.14298 5.1389C5.91598 5.39068 5.53615 5.54314 5.2867 5.54314C2.91947 5.54314 1 7.50144 1 9.91639V16.4212L1.00505 16.6632C1.12922 19.6317 3.52707 22 6.46702 22H17.533L17.7701 21.9948C20.6788 21.8681 23 19.4205 23 16.4212V9.91639L22.9944 9.69133C22.8796 7.38095 21.0065 5.54314 18.7133 5.54314C18.4629 5.54314 18.0837 5.39091 17.857 5.1389L17.8148 5.07997L17.7999 5.0563L17.7835 5.02912L17.2861 4.05576L17.152 3.81794ZM8.26068 4.68725C8.49597 4.29034 8.71646 4.0614 8.96 3.96249C9.83785 3.60629 13.7756 3.59145 14.9076 3.91796L15.0389 3.96249L15.142 4.01298C15.3799 4.14988 15.6002 4.4223 15.8408 4.86806L16.1971 5.57249L16.3248 5.8169L16.3496 5.86198L16.3704 5.89827C16.4568 6.04466 16.5433 6.1684 16.6413 6.27739C17.1472 6.8398 17.8743 7.16435 18.5217 7.21871L18.7133 7.22688L18.8938 7.23308C20.2657 7.32774 21.35 8.49329 21.35 9.91639V16.4212L21.3443 16.6348C21.2355 18.686 19.5701 20.3163 17.533 20.3163H6.46702L6.25758 20.3105C4.24691 20.1995 2.65 18.5004 2.65 16.4212V9.91639L2.65608 9.7323C2.74483 8.39395 3.79397 7.32363 5.10619 7.23308L5.2867 7.22688L5.47789 7.21871C6.12431 7.16436 6.85147 6.8399 7.35796 6.27814C7.45729 6.16768 7.5443 6.04305 7.63126 5.89542L7.73548 5.70299L8.15882 4.86775L8.26068 4.68725ZM11.9997 8.95856C14.3869 8.95856 16.3216 10.9327 16.3216 13.3688C16.3216 15.8049 14.3869 17.7791 11.9997 17.7791C9.61241 17.7791 7.67779 15.8049 7.67779 13.3688C7.67779 10.9327 9.61241 8.95856 11.9997 8.95856ZM9.32778 13.3688C9.32778 11.8627 10.5237 10.6423 11.9997 10.6423C13.4756 10.6423 14.6716 11.8627 14.6716 13.3688C14.6716 14.8749 13.4756 16.0954 11.9997 16.0954C10.5237 16.0954 9.32778 14.8749 9.32778 13.3688Z" fill="black"/>
<mask id="mask0_0_4763" style="mask-type:luminance" maskUnits="userSpaceOnUse" x="1" y="2" width="22" height="20">
<path fill-rule="evenodd" clip-rule="evenodd" d="M17.152 3.81794C16.745 3.12888 16.2911 2.65887 15.6491 2.39811C14.3422 1.86731 9.65795 1.86731 8.35005 2.39801C7.63632 2.68789 7.15534 3.23606 6.7132 4.05607L6.21715 5.02787L6.16059 5.11641L6.1508 5.1295L6.14298 5.1389C5.91598 5.39068 5.53615 5.54314 5.2867 5.54314C2.91947 5.54314 1 7.50144 1 9.91639V16.4212L1.00505 16.6632C1.12922 19.6317 3.52707 22 6.46702 22H17.533L17.7701 21.9948C20.6788 21.8681 23 19.4205 23 16.4212V9.91639L22.9944 9.69133C22.8796 7.38095 21.0065 5.54314 18.7133 5.54314C18.4629 5.54314 18.0837 5.39091 17.857 5.1389L17.8148 5.07997L17.7999 5.0563L17.7835 5.02912L17.2861 4.05576L17.152 3.81794ZM8.26068 4.68725C8.49597 4.29034 8.71646 4.0614 8.96 3.96249C9.83785 3.60629 13.7756 3.59145 14.9076 3.91796L15.0389 3.96249L15.142 4.01298C15.3799 4.14988 15.6002 4.4223 15.8408 4.86806L16.1971 5.57249L16.3248 5.8169L16.3496 5.86198L16.3704 5.89827C16.4568 6.04466 16.5433 6.1684 16.6413 6.27739C17.1472 6.8398 17.8743 7.16435 18.5217 7.21871L18.7133 7.22688L18.8938 7.23308C20.2657 7.32774 21.35 8.49329 21.35 9.91639V16.4212L21.3443 16.6348C21.2355 18.686 19.5701 20.3163 17.533 20.3163H6.46702L6.25758 20.3105C4.24691 20.1995 2.65 18.5004 2.65 16.4212V9.91639L2.65608 9.7323C2.74483 8.39395 3.79397 7.32363 5.10619 7.23308L5.2867 7.22688L5.47789 7.21871C6.12431 7.16436 6.85147 6.8399 7.35796 6.27814C7.45729 6.16768 7.5443 6.04305 7.63126 5.89542L7.73548 5.70299L8.15882 4.86775L8.26068 4.68725ZM11.9997 8.95856C14.3869 8.95856 16.3216 10.9327 16.3216 13.3688C16.3216 15.8049 14.3869 17.7791 11.9997 17.7791C9.61241 17.7791 7.67779 15.8049 7.67779 13.3688C7.67779 10.9327 9.61241 8.95856 11.9997 8.95856ZM9.32778 13.3688C9.32778 11.8627 10.5237 10.6423 11.9997 10.6423C13.4756 10.6423 14.6716 11.8627 14.6716 13.3688C14.6716 14.8749 13.4756 16.0954 11.9997 16.0954C10.5237 16.0954 9.32778 14.8749 9.32778 13.3688Z" fill="white"/>
</mask>
<g mask="url(#mask0_0_4763)">
<rect width="24" height="24" fill="black"/>
</g>
</svg>
