<svg width="24" height="24" viewBox="0 0 24 24" fill="none" xmlns="http://www.w3.org/2000/svg">
<mask id="mask0_0_4500" style="mask-type:luminance" maskUnits="userSpaceOnUse" x="1" y="4" width="22" height="16">
<path fill-rule="evenodd" clip-rule="evenodd" d="M7.63803 4.00117L8.11216 4.00179C8.19321 4.00191 8.27516 4.00203 8.35787 4.00216L8.86175 4.003C9.96738 4.00493 11.145 4.00758 12.0425 4.00949L12.4356 4.01032C12.4974 4.01044 12.5572 4.01056 12.6149 4.01068C14.883 3.8476 16.9303 5.57132 17.1128 7.8844C17.1145 7.90813 17.116 8.04276 17.1172 8.28767L19.2097 6.53299C19.8186 6.02206 20.6381 5.92194 21.3488 6.26566C22.0595 6.61143 22.501 7.32569 22.5 8.13078L22.4879 15.7162C22.4869 16.5213 22.0444 17.2355 21.3347 17.5782C21.0565 17.7134 20.7621 17.7785 20.4698 17.7785C20.0152 17.7785 19.5666 17.6185 19.1966 17.3078L17.1219 15.5451C17.1219 15.5749 17.1219 15.6049 17.1219 15.635C17.1642 16.7249 16.7852 17.7746 16.0533 18.5901C15.2842 19.4478 14.2237 19.9463 13.0685 19.9948C13.0489 19.9963 12.9384 19.9972 12.7573 19.9978L12.359 19.9986C12.2037 19.9987 12.0272 19.9987 11.8339 19.9986L10.9811 19.9978C10.9043 19.9977 10.8262 19.9975 10.7471 19.9974L10.2608 19.9966C9.10222 19.9946 7.7971 19.9915 6.78527 19.9893L6.37084 19.9884C6.23954 19.9881 6.11552 19.9878 6.00004 19.9876C5.89319 19.9959 5.78633 20 5.67948 20C3.54846 20.001 1.68962 18.3289 1.51422 16.1356L1.51406 16.1333L1.51312 16.1129C1.51305 16.1106 1.51298 16.1082 1.51291 16.1055L1.51221 16.073C1.51213 16.0684 1.51205 16.0634 1.51197 16.058L1.51121 15.9979C1.51112 15.9898 1.51103 15.9812 1.51094 15.9721L1.51014 15.8745C1.51005 15.8619 1.50996 15.8486 1.50987 15.8346L1.50932 15.7424C1.50922 15.7256 1.50913 15.708 1.50904 15.6897L1.50822 15.5029C1.50813 15.4796 1.50804 15.4554 1.50795 15.4303L1.50717 15.1789C1.50708 15.1481 1.507 15.1162 1.50691 15.0833L1.50618 14.7575C1.5061 14.7179 1.50603 14.6772 1.50595 14.6353L1.50511 14.0734C1.50504 14.0215 1.50498 13.9682 1.50492 13.9136L1.50413 12.9881C1.50409 12.919 1.50405 12.8484 1.50401 12.7762L1.504 8.73227C1.50404 8.60963 1.50409 8.48493 1.50414 8.35817C1.45575 7.294 1.83276 6.23706 2.56864 5.41443C3.33677 4.55566 4.39623 4.05506 5.55246 4.00449C5.56803 4.00334 5.64171 4.00247 5.76323 4.00184L5.98012 4.00107C6.02182 4.00097 6.06619 4.00089 6.11308 4.00081L7.41152 4.00093C7.48571 4.001 7.56126 4.00108 7.63803 4.00117ZM12.6693 5.55687C11.3966 5.55497 9.84036 5.5527 8.51236 5.55121L7.81368 5.55049C7.70204 5.55038 7.59307 5.55029 7.48712 5.5502L5.73402 5.55025C5.66805 5.55056 5.62538 5.55102 5.60892 5.55171C4.86498 5.5837 4.17849 5.90677 3.68354 6.46001C3.22186 6.97713 2.98396 7.63772 3.01521 8.32308L3.01604 12.3103C3.01608 12.3983 3.01613 12.4857 3.01618 12.5724L3.0171 13.8049C3.01718 13.8816 3.01725 13.957 3.01733 14.031L3.01785 14.4574C3.01795 14.5253 3.01804 14.5916 3.01814 14.6563L3.01912 15.1878C3.0202 15.6663 3.02155 15.9767 3.02327 16.0365C3.13819 17.466 4.44663 18.5591 5.9446 18.4414C6.10301 18.4416 6.26577 18.4419 6.43191 18.4421L6.9395 18.443C7.36933 18.4437 7.81413 18.4445 8.25858 18.4452L8.79088 18.4462C9.05595 18.4466 9.3187 18.4471 9.57585 18.4475L10.0817 18.4482C10.1644 18.4483 10.2463 18.4485 10.3271 18.4486L10.7995 18.4492C10.8759 18.4493 10.951 18.4494 11.0249 18.4495L12.8045 18.4495C12.9209 18.4491 12.994 18.4484 13.0161 18.4476C13.757 18.4167 14.4445 18.0946 14.9394 17.5424C15.4021 17.0274 15.64 16.3668 15.6108 15.6845L15.6099 15.6675L15.6097 10.6757C15.6097 10.5946 15.6096 10.5146 15.6096 10.4357L15.6088 9.55235C15.6087 9.48464 15.6087 9.41847 15.6086 9.35407L15.6077 8.82416C15.6074 8.66515 15.607 8.52478 15.6066 8.40612L15.6057 8.19867C15.6051 8.08089 15.6045 8.00536 15.6037 7.97936C15.4898 6.54259 14.1753 5.4361 12.6693 5.55687ZM20.1674 7.73133L17.1214 10.2759C17.1216 10.4027 17.1217 10.5346 17.1218 10.6714L17.1225 13.2597L20.1553 16.1115C20.3781 16.2973 20.6018 16.2209 20.6885 16.1776C20.7752 16.1363 20.9758 16.0073 20.9758 15.7141L20.9879 8.12872C20.9889 7.83558 20.7873 7.70656 20.7006 7.66424C20.6149 7.62296 20.3881 7.54554 20.1674 7.73133Z" fill="white"/>
</mask>
<g mask="url(#mask0_0_4500)">
<rect width="24" height="24" fill="black"/>
</g>
</svg>
