<svg width="24" height="24" viewBox="0 0 24 24" fill="none" xmlns="http://www.w3.org/2000/svg">
<mask id="mask0_0_4688" style="mask-type:luminance" maskUnits="userSpaceOnUse" x="3" y="1" width="19" height="22">
<path fill-rule="evenodd" clip-rule="evenodd" d="M13.5 14.5C13.5 13.9477 13.0523 13.5 12.5 13.5C11.9477 13.5 11.5 13.9477 11.5 14.5V17C11.5 17.5523 11.9477 18 12.5 18C13.0523 18 13.5 17.5523 13.5 17V14.5ZM12.5125 1.00009C15.7734 1.00117 18.5 3.53376 18.5 6.75625V8.4578C20.2725 9.26876 21.5 11.0699 21.5 13.1519V17.8481C21.5 20.6847 19.2216 23 16.3904 23H8.10956C5.27843 23 3 20.6847 3 17.8481V13.1519C3 10.8793 4.4625 8.94132 6.5 8.26051V6.73076C6.5148 3.50751 9.25169 0.987563 12.5125 1.00009ZM16.5 6.75625V8.0012C16.4636 8.00043 16.4271 8.00004 16.3904 8.00004H8.5V6.73778C8.51055 4.70799 10.2584 2.9907 12.5062 3.00008L12.5104 3.00009C14.759 3.00009 16.5 4.72686 16.5 6.75625ZM8.10956 10C6.40196 10 5 11.4008 5 13.1519V17.8481C5 19.5992 6.40196 21 8.10956 21H16.3904C18.098 21 19.5 19.5992 19.5 17.8481V13.1519C19.5 11.4008 18.098 10 16.3904 10H8.10956Z" fill="white"/>
</mask>
<g mask="url(#mask0_0_4688)">
<rect width="24" height="24" fill="black"/>
</g>
</svg>
