<svg width="24" height="24" viewBox="0 0 24 24" fill="none" xmlns="http://www.w3.org/2000/svg">
<mask id="mask0_0_4718" style="mask-type:luminance" maskUnits="userSpaceOnUse" x="3" y="1" width="18" height="22">
<path fill-rule="evenodd" clip-rule="evenodd" d="M15.3609 1C18.9442 1 21 2.77186 21 5.85864V21.1986C21 21.8423 20.6683 22.4217 20.1105 22.7457C19.5548 23.0707 18.8851 23.077 18.3231 22.7604L12.0269 19.2072L5.67268 22.7678C5.39801 22.9219 5.09696 23 4.79483 23C4.48319 23 4.17155 22.9166 3.88843 22.7499C3.33171 22.4259 3 21.8465 3 21.2039V5.66552C3 2.7001 5.05681 1 8.64328 1H15.3609ZM15.3609 2.58296H8.64328C5.95051 2.58296 4.5846 3.61927 4.5846 5.66552V21.2039C4.5846 21.3031 4.64165 21.3569 4.68919 21.3843C4.73672 21.4139 4.81173 21.435 4.89835 21.3864L11.6403 17.6084C11.8811 17.4744 12.1759 17.4734 12.4178 17.6095L19.1016 21.3812C19.1893 21.4318 19.2643 21.4086 19.3119 21.3801C19.3594 21.3516 19.4154 21.2978 19.4154 21.1986L19.415 5.73838C19.4071 4.83008 19.2311 2.58296 15.3609 2.58296ZM15.8245 8.10064C16.2618 8.10064 16.6168 8.45522 16.6168 8.89212C16.6168 9.32902 16.2618 9.6836 15.8245 9.6836H8.09374C7.65639 9.6836 7.30144 9.32902 7.30144 8.89212C7.30144 8.45522 7.65639 8.10064 8.09374 8.10064H15.8245Z" fill="white"/>
</mask>
<g mask="url(#mask0_0_4718)">
<rect width="24" height="24" fill="black"/>
</g>
</svg>
