<svg width="24" height="24" viewBox="0 0 24 24" fill="none" xmlns="http://www.w3.org/2000/svg">
<path fill-rule="evenodd" clip-rule="evenodd" d="M7 8.5V3.5H17V8.5H7ZM5.5 3C5.5 2.44772 5.94772 2 6.5 2H17.5C18.0523 2 18.5 2.44772 18.5 3V9C18.5 9.5523 18.0523 10 17.5 10H6.5C5.94772 10 5.5 9.5523 5.5 9V3ZM2.75 12C2.33579 12 2 12.3358 2 12.75C2 13.1642 2.33579 13.5 2.75 13.5H5V19.25V21.25C5 21.6642 5.33578 22 5.75 22C6.16422 22 6.5 21.6642 6.5 21.25V20H17.5V21.25C17.5 21.6642 17.8358 22 18.25 22C18.6642 22 19 21.6642 19 21.25V19.25V13.5H21.25C21.6642 13.5 22 13.1642 22 12.75C22 12.3358 21.6642 12 21.25 12H2.75ZM17.5 13.5H6.5V18.5H17.5V13.5ZM10 11C10 10.7239 10.2239 10.5 10.5 10.5H13.5C13.7761 10.5 14 10.7239 14 11C14 11.2761 13.7761 11.5 13.5 11.5H10.5C10.2239 11.5 10 11.2761 10 11Z" fill="black"/>
<mask id="mask0_0_4548" style="mask-type:luminance" maskUnits="userSpaceOnUse" x="2" y="2" width="20" height="20">
<path fill-rule="evenodd" clip-rule="evenodd" d="M7 8.5V3.5H17V8.5H7ZM5.5 3C5.5 2.44772 5.94772 2 6.5 2H17.5C18.0523 2 18.5 2.44772 18.5 3V9C18.5 9.5523 18.0523 10 17.5 10H6.5C5.94772 10 5.5 9.5523 5.5 9V3ZM2.75 12C2.33579 12 2 12.3358 2 12.75C2 13.1642 2.33579 13.5 2.75 13.5H5V19.25V21.25C5 21.6642 5.33578 22 5.75 22C6.16422 22 6.5 21.6642 6.5 21.25V20H17.5V21.25C17.5 21.6642 17.8358 22 18.25 22C18.6642 22 19 21.6642 19 21.25V19.25V13.5H21.25C21.6642 13.5 22 13.1642 22 12.75C22 12.3358 21.6642 12 21.25 12H2.75ZM17.5 13.5H6.5V18.5H17.5V13.5ZM10 11C10 10.7239 10.2239 10.5 10.5 10.5H13.5C13.7761 10.5 14 10.7239 14 11C14 11.2761 13.7761 11.5 13.5 11.5H10.5C10.2239 11.5 10 11.2761 10 11Z" fill="white"/>
</mask>
<g mask="url(#mask0_0_4548)">
<rect width="24" height="24" fill="black"/>
</g>
</svg>
