<svg width="24" height="24" viewBox="0 0 24 24" fill="none" xmlns="http://www.w3.org/2000/svg">
<mask id="mask0_0_4755" style="mask-type:luminance" maskUnits="userSpaceOnUse" x="2" y="2" width="20" height="20">
<path fill-rule="evenodd" clip-rule="evenodd" d="M16.9432 6.3426C16.9432 3.74532 15.2058 2 12.6194 2H12.6186L6.29002 2.00324C3.68394 2.01865 2 3.72181 2 6.3426V13.7973C2 16.3946 3.73823 18.1399 6.32461 18.1399L12.6531 18.1375C15.2592 18.1212 16.9432 16.4173 16.9432 13.7973V6.3426ZM6.29413 3.21921L12.6194 3.21596C14.5542 3.21596 15.7092 4.38491 15.7092 6.3426V13.7973C15.7092 15.7412 14.5641 16.9102 12.649 16.9215L6.32375 16.9239C4.38976 16.9239 3.23395 15.755 3.23395 13.7973V6.3426C3.23395 4.39789 4.37907 3.23056 6.29413 3.21921ZM8.30639 19.6108C8.06896 19.1962 8.36579 18.6779 8.84072 18.6779C9.06118 18.6779 9.26484 18.7964 9.37504 18.9889L9.45403 19.1268C10.425 20.8222 12.0057 21.252 13.6807 20.2771L19.1573 17.0868C20.8102 16.1117 21.2221 14.5222 20.2579 12.8387L17.5673 8.14086C17.5083 8.03773 17.4772 7.92077 17.4772 7.80165V5.80402C17.4772 5.71751 17.5862 5.68593 17.6291 5.76081L21.3265 12.2167C22.6261 14.4857 22.0129 16.8102 19.764 18.1378L14.2845 21.3298C12.0446 22.6334 9.67364 21.9981 8.38538 19.7487L8.30639 19.6108ZM9.47191 7.37997C9.47191 8.56846 8.51613 9.53196 7.33717 9.53196C6.1582 9.53196 5.20243 8.56846 5.20243 7.37997C5.20243 6.19148 6.1582 5.22798 7.33717 5.22798C8.51613 5.22798 9.47191 6.19148 9.47191 7.37997ZM11.6066 14.9119C12.7856 14.9119 13.7414 13.9484 13.7414 12.7599C13.7414 11.5715 12.7856 10.608 11.6066 10.608C10.4277 10.608 9.47191 11.5715 9.47191 12.7599C9.47191 13.9484 10.4277 14.9119 11.6066 14.9119Z" fill="white"/>
</mask>
<g mask="url(#mask0_0_4755)">
<rect width="24" height="24" fill="black"/>
</g>
</svg>
