<svg width="24" height="24" viewBox="0 0 24 24" fill="none" xmlns="http://www.w3.org/2000/svg">
<mask id="mask0_0_4695" style="mask-type:luminance" maskUnits="userSpaceOnUse" x="2" y="2" width="20" height="20">
<path fill-rule="evenodd" clip-rule="evenodd" d="M11.0311 14.1208L14.782 20.2061C14.9461 20.4728 15.2025 20.4697 15.3061 20.4553C15.4097 20.441 15.659 20.3774 15.7492 20.0748L20.4397 4.23341C20.5217 3.95341 20.371 3.76263 20.3033 3.69494C20.2376 3.62725 20.0499 3.48263 19.7781 3.55955L3.92515 8.20172C3.62463 8.28992 3.55898 8.54224 3.54462 8.64583C3.53026 8.75147 3.52616 9.01302 3.79181 9.1802L9.94694 13.0295L15.3851 7.53401C15.6836 7.23246 16.1708 7.22938 16.4734 7.52785C16.7759 7.82632 16.778 8.31454 16.4795 8.61609L11.0311 14.1208ZM15.2261 22C14.5123 22 13.8579 21.6369 13.4722 21.0133L9.49564 14.5608L2.97639 10.4838C2.2738 10.0438 1.90661 9.2602 2.02046 8.43659C2.13328 7.61298 2.69843 6.95861 3.49231 6.72578L19.3453 2.08362C20.0745 1.87028 20.8561 2.07234 21.3936 2.60773C21.931 3.14826 22.131 3.93802 21.9136 4.67035L17.2231 20.5107C16.9883 21.3077 16.3318 21.8708 15.5102 21.9805C15.4138 21.9928 15.3205 22 15.2261 22Z" fill="white"/>
</mask>
<g mask="url(#mask0_0_4695)">
<rect width="24" height="24" fill="black"/>
</g>
</svg>
