<svg width="24" height="24" viewBox="0 0 24 24" fill="none" xmlns="http://www.w3.org/2000/svg">
<mask id="mask0_0_4541" style="mask-type:luminance" maskUnits="userSpaceOnUse" x="2" y="2" width="20" height="20">
<path fill-rule="evenodd" clip-rule="evenodd" d="M7 18.5H5.5H2.68182C2.30526 18.5 2 18.1642 2 17.75C2 17.3358 2.30526 17 2.68182 17H4H5.5V15.5V3C5.5 2.44772 5.94772 2 6.5 2H17.5C18.0523 2 18.5 2.44772 18.5 3V15.5V17H20H21.3182C21.6947 17 22 17.3358 22 17.75C22 18.1642 21.6947 18.5 21.3182 18.5H18.5H17H7ZM17 17V3.5H7V17H17ZM5.5 21.25C5.5 20.8358 5.79101 20.5 6.15 20.5H17.85C18.209 20.5 18.5 20.8358 18.5 21.25C18.5 21.6642 18.209 22 17.85 22H6.15C5.79101 22 5.5 21.6642 5.5 21.25ZM15 11.5C15.5523 11.5 16 11.0523 16 10.5C16 9.9477 15.5523 9.5 15 9.5C14.4477 9.5 14 9.9477 14 10.5C14 11.0523 14.4477 11.5 15 11.5Z" fill="white"/>
</mask>
<g mask="url(#mask0_0_4541)">
<rect width="24" height="24" fill="black"/>
</g>
</svg>
