<svg width="24" height="24" viewBox="0 0 24 24" fill="none" xmlns="http://www.w3.org/2000/svg">
<mask id="mask0_0_4506" style="mask-type:luminance" maskUnits="userSpaceOnUse" x="1" y="2" width="22" height="21">
<path fill-rule="evenodd" clip-rule="evenodd" d="M12.0009 17.024C11.8629 17.024 11.7329 16.9898 11.6185 16.9293C11.5816 16.9098 11.546 16.8874 11.5123 16.8623C11.4715 16.832 11.4337 16.7981 11.3991 16.7609L8.20921 13.5312C7.88801 13.205 7.88911 12.678 8.21141 12.354C8.53481 12.03 9.05621 12.03 9.37741 12.3562L11.1759 14.1779V2.83214C11.1759 2.3728 11.5455 2 12.0009 2C12.4563 2 12.8259 2.3728 12.8259 2.83214V14.1779L14.6244 12.3562C14.9456 12.03 15.467 12.03 15.7904 12.354C16.1127 12.678 16.1138 13.205 15.7926 13.5312L12.6027 16.7609C12.5683 16.7979 12.5305 16.8318 12.4899 16.862C12.353 16.9638 12.1839 17.024 12.0009 17.024ZM5.8785 22.5H18.1325C20.8154 22.5 23 20.2976 23 17.5904V12.1715C23 9.45873 20.8121 7.25079 18.1226 7.25079H17.0974C16.642 7.25079 16.2724 7.62359 16.2724 8.08293C16.2724 8.54227 16.642 8.91507 17.0974 8.91507H18.1226C19.9013 8.91507 21.35 10.3752 21.35 12.1715V17.5904C21.35 19.3789 19.9057 20.8357 18.1325 20.8357H5.8785C4.0976 20.8357 2.65 19.3756 2.65 17.5793V12.1593C2.65 10.3696 4.0932 8.91507 5.8686 8.91507H6.9037C7.3591 8.91507 7.7287 8.54227 7.7287 8.08293C7.7287 7.62359 7.3591 7.25079 6.9037 7.25079H5.8686C3.1835 7.25079 1 9.45207 1 12.1593V17.5793C1 20.2932 3.189 22.5 5.8785 22.5Z" fill="white"/>
</mask>
<g mask="url(#mask0_0_4506)">
<rect width="24" height="24" fill="black"/>
</g>
</svg>
