<svg width="24" height="24" viewBox="0 0 24 24" fill="none" xmlns="http://www.w3.org/2000/svg">
<mask id="mask0_0_4405" style="mask-type:luminance" maskUnits="userSpaceOnUse" x="1" y="2" width="21" height="20">
<path fill-rule="evenodd" clip-rule="evenodd" d="M21.1923 20.4159C21.6382 20.4159 22 20.7707 22 21.2079C22 21.6451 21.6382 21.9999 21.1923 21.9999H13.3816C12.9358 21.9999 12.5739 21.6451 12.5739 21.2079C12.5739 20.7707 12.9358 20.4159 13.3816 20.4159H21.1923ZM16.2018 2.69024C16.2556 2.73142 18.0573 4.1042 18.0573 4.1042C18.712 4.48647 19.2235 5.16969 19.4174 5.97858C19.6101 6.77902 19.4702 7.60479 19.0211 8.3028C19.0181 8.30745 19.0151 8.31204 19.0047 8.32577L18.9966 8.33633C18.9237 8.43052 18.6069 8.8234 17.0076 10.7882C16.9927 10.8139 16.9759 10.838 16.9575 10.8615C16.9306 10.896 16.9012 10.9278 16.8699 10.9567C16.7608 11.0913 16.6456 11.2328 16.5245 11.3816L16.279 11.6831C15.7726 12.305 15.1718 13.0425 14.4591 13.9173L14.0934 14.3662C12.7175 16.0549 10.9553 18.217 8.69795 20.9863C8.20365 21.5903 7.46274 21.9419 6.66692 21.9514L2.7481 22H2.73733C2.36365 22 2.03843 21.7487 1.9512 21.3907L1.06922 17.7254C0.887221 16.9661 1.06814 16.1826 1.56459 15.5743L11.709 3.1327C11.7133 3.12847 11.7165 3.12319 11.7208 3.11897C12.8332 1.81482 14.8449 1.62264 16.2018 2.69024ZM10.5779 7.05499L2.82564 16.5638C2.64149 16.7898 2.57364 17.0812 2.64149 17.3611L3.37486 20.4076L6.64753 20.3674C6.95876 20.3643 7.24629 20.2281 7.4369 19.9957C8.41849 18.7915 9.65213 17.2779 10.9205 15.7215L11.3692 15.1709L11.8188 14.6192C13.0083 13.1595 14.1834 11.7173 15.1667 10.51L10.5779 7.05499ZM12.9646 4.12955L11.587 5.81739L16.1754 9.27146C17.0586 8.1867 17.6396 7.47227 17.6933 7.40416C17.8699 7.12326 17.9388 6.72622 17.8462 6.34395C17.7514 5.95218 17.5027 5.61954 17.1441 5.40729C17.0676 5.35555 15.253 3.97432 15.197 3.93102C14.5143 3.39458 13.5181 3.48751 12.9646 4.12955Z" fill="white"/>
</mask>
<g mask="url(#mask0_0_4405)">
<rect width="24" height="24" fill="black"/>
</g>
</svg>
