<svg width="24" height="24" viewBox="0 0 24 24" fill="none" xmlns="http://www.w3.org/2000/svg">
<mask id="mask0_0_4519" style="mask-type:luminance" maskUnits="userSpaceOnUse" x="5" y="1" width="14" height="22">
<path fill-rule="evenodd" clip-rule="evenodd" d="M17.3846 8.31737C17.3846 9.94866 16.7339 11.9121 15.6404 13.4577C14.5308 15.0263 13.2066 15.85 12 15.85C10.7934 15.85 9.46925 15.0263 8.35955 13.4577C7.26603 11.9121 6.61538 9.94866 6.61538 8.31737C6.61538 5.15117 9.0612 2.65 12 2.65C14.9388 2.65 17.3846 5.15117 17.3846 8.31737ZM19 8.31737C19 12.3587 15.866 17.5 12 17.5C8.13401 17.5 5 12.3587 5 8.31737C5 4.27611 8.13401 1 12 1C15.866 1 19 4.27611 19 8.31737ZM12.2692 18.6C11.8232 18.6 11.4615 18.9694 11.4615 19.425V22.175C11.4615 22.6306 11.8232 23 12.2692 23C12.7153 23 13.0769 22.6306 13.0769 22.175V19.425C13.0769 18.9694 12.7153 18.6 12.2692 18.6Z" fill="white"/>
</mask>
<g mask="url(#mask0_0_4519)">
<rect width="24" height="24" fill="black"/>
</g>
</svg>
