<svg width="24" height="24" viewBox="0 0 24 24" fill="none" xmlns="http://www.w3.org/2000/svg">
<mask id="mask0_0_4426" style="mask-type:luminance" maskUnits="userSpaceOnUse" x="2" y="2" width="20" height="20">
<path fill-rule="evenodd" clip-rule="evenodd" d="M12 2C17.5139 2 22 6.48606 22 12C22 17.5139 17.5139 22 12 22C6.48605 22 2 17.5139 2 12C2 6.48606 6.48605 2 12 2ZM12 3.44774C7.28425 3.44774 3.44774 7.28519 3.44774 12C3.44774 16.7158 7.28425 20.5523 12 20.5523C16.7158 20.5523 20.5523 16.7158 20.5523 12C20.5523 7.28519 16.7158 3.44774 12 3.44774ZM15.7367 8.26377C15.9268 8.45487 15.9963 8.73573 15.9153 8.9915L14.3787 13.9032C14.3083 14.13 14.1297 14.3076 13.9039 14.378L8.99219 15.9155C8.92077 15.9377 8.84742 15.9484 8.77599 15.9484C8.58682 15.9484 8.40151 15.874 8.2635 15.737C8.07336 15.5459 8.00387 15.265 8.08494 15.0093L9.62244 10.0976C9.69289 9.86979 9.87048 9.69317 10.0963 9.62271L15.008 8.08521C15.2657 8.00318 15.5456 8.07363 15.7367 8.26377ZM14.121 9.87944L10.8907 10.8909L9.88013 14.1213L13.1096 13.1098L14.121 9.87944Z" fill="white"/>
</mask>
<g mask="url(#mask0_0_4426)">
<rect width="24" height="24" fill="black"/>
</g>
</svg>
