<svg width="24" height="24" viewBox="0 0 24 24" fill="none" xmlns="http://www.w3.org/2000/svg">
<mask id="mask0_0_4641" style="mask-type:luminance" maskUnits="userSpaceOnUse" x="2" y="1" width="20" height="22">
<path fill-rule="evenodd" clip-rule="evenodd" d="M16.213 1C19.6746 1 22 3.37901 22 6.91932V17.0807C22 20.6519 19.7462 22.9746 16.2582 22.9967L7.78805 23C4.32645 23 2 20.621 2 17.0807V6.91932C2 3.34696 4.25379 1.02541 7.74181 1.00442L16.2119 1H16.213ZM16.213 2.65746L7.74731 2.66188C5.18415 2.67735 3.65153 4.26851 3.65153 6.91932V17.0807C3.65153 19.7492 5.19846 21.3425 7.78695 21.3425L16.2527 21.3392C18.8159 21.3238 20.3485 19.7304 20.3485 17.0807V6.91932C20.3485 4.25083 18.8026 2.65746 16.213 2.65746ZM16.0007 15.8881C16.4565 15.8881 16.8264 16.2593 16.8264 16.7168C16.8264 17.1742 16.4565 17.5455 16.0007 17.5455H8.0513C7.59548 17.5455 7.22555 17.1742 7.22555 16.7168C7.22555 16.2593 7.59548 15.8881 8.0513 15.8881H16.0007ZM16.0007 11.2621C16.4565 11.2621 16.8264 11.6334 16.8264 12.0908C16.8264 12.5483 16.4565 12.9195 16.0007 12.9195H8.0513C7.59548 12.9195 7.22555 12.5483 7.22555 12.0908C7.22555 11.6334 7.59548 11.2621 8.0513 11.2621H16.0007ZM11.0843 6.64683C11.5401 6.64683 11.91 7.0181 11.91 7.47556C11.91 7.93302 11.5401 8.30429 11.0843 8.30429H8.05097C7.59515 8.30429 7.22521 7.93302 7.22521 7.47556C7.22521 7.0181 7.59515 6.64683 8.05097 6.64683H11.0843Z" fill="white"/>
</mask>
<g mask="url(#mask0_0_4641)">
<rect width="24" height="24" fill="black"/>
</g>
</svg>
