<svg width="24" height="24" viewBox="0 0 24 24" fill="none" xmlns="http://www.w3.org/2000/svg">
<mask id="mask0_0_4632" style="mask-type:luminance" maskUnits="userSpaceOnUse" x="1" y="2" width="22" height="20">
<path fill-rule="evenodd" clip-rule="evenodd" d="M1.5 6.26214C1.5 4.17786 3.20901 2.5 5.30177 2.5C7.39452 2.5 9.10354 4.17786 9.10354 6.26214C9.10354 8.34641 7.39452 10.0243 5.30177 10.0243C3.20901 10.0243 1.5 8.34641 1.5 6.26214ZM5.30177 4.47703C4.29311 4.47703 3.48731 5.2831 3.48731 6.26214C3.48731 7.24118 4.29311 8.04724 5.30177 8.04724C6.31042 8.04724 7.11622 7.24118 7.11622 6.26214C7.11622 5.2831 6.31042 4.47703 5.30177 4.47703ZM13.3554 5.33758C12.8066 5.33758 12.3617 5.78015 12.3617 6.3261C12.3617 6.87204 12.8066 7.31461 13.3554 7.31461H20.8425C21.3913 7.31461 21.8361 6.87204 21.8361 6.3261C21.8361 5.78015 21.3913 5.33758 20.8425 5.33758H13.3554ZM2.52844 16.7956C1.97966 16.7956 1.53478 17.2382 1.53478 17.7841C1.53478 18.3301 1.97966 18.7727 2.52844 18.7727H10.0156C10.5643 18.7727 11.0092 18.3301 11.0092 17.7841C11.0092 17.2382 10.5643 16.7956 10.0156 16.7956H2.52844ZM18.6992 13.9757C16.6057 13.9757 14.8965 15.6534 14.8965 17.7379C14.8965 19.8224 16.6057 21.5 18.6992 21.5C20.7924 21.5 22.5 19.8217 22.5 17.7379C22.5 15.654 20.7924 13.9757 18.6992 13.9757ZM16.8838 17.7379C16.8838 16.759 17.6894 15.9528 18.6992 15.9528C19.7074 15.9528 20.5127 16.7584 20.5127 17.7379C20.5127 18.7173 19.7074 19.523 18.6992 19.523C17.6894 19.523 16.8838 18.7167 16.8838 17.7379Z" fill="white"/>
</mask>
<g mask="url(#mask0_0_4632)">
<rect width="24" height="24" fill="black"/>
</g>
</svg>
