<svg width="24" height="24" viewBox="0 0 24 24" fill="none" xmlns="http://www.w3.org/2000/svg">
<mask id="mask0_0_4375" style="mask-type:luminance" maskUnits="userSpaceOnUse" x="4" y="1" width="16" height="22">
<path fill-rule="evenodd" clip-rule="evenodd" d="M15.7333 1H13.6V2.1H8.26667C5.91025 2.1 4 4.06995 4 6.5V17.5C4 19.9301 5.91025 21.9 8.26667 21.9H9.33333V23H20V8.7C20 6.03915 18.1677 3.81962 15.7333 3.31002V2.65H17.0667C17.5085 2.65 17.8667 2.28064 17.8667 1.825C17.8667 1.36937 17.5085 1 17.0667 1H15.7333ZM9.33333 20.25V8.7C9.33333 6.52299 10.5598 4.6414 12.3391 3.75H12H8.26667C6.79391 3.75 5.6 4.98122 5.6 6.5V17.5C5.6 19.0188 6.79391 20.25 8.26667 20.25H9.33333ZM18.4 8.7V21.35H10.9333V8.7C10.9333 6.5737 12.6048 4.85 14.6667 4.85C16.7285 4.85 18.4 6.5737 18.4 8.7Z" fill="white"/>
</mask>
<g mask="url(#mask0_0_4375)">
<rect width="24" height="24" fill="black"/>
</g>
</svg>
