<svg width="24" height="24" viewBox="0 0 24 24" fill="none" xmlns="http://www.w3.org/2000/svg">
<mask id="mask0_0_4562" style="mask-type:luminance" maskUnits="userSpaceOnUse" x="2" y="2" width="20" height="20">
<path fill-rule="evenodd" clip-rule="evenodd" d="M7.5 3.5H16.5C18.7092 3.5 20.5 5.29086 20.5 7.5V16.5C20.5 18.7092 18.7092 20.5 16.5 20.5H7.5C5.29086 20.5 3.5 18.7092 3.5 16.5V7.5C3.5 5.29086 5.29086 3.5 7.5 3.5ZM2 7.5C2 4.46244 4.46244 2 7.5 2H16.5C19.5375 2 22 4.46244 22 7.5V16.5C22 19.5375 19.5375 22 16.5 22H7.5C4.46244 22 2 19.5375 2 16.5V7.5ZM11 9.5V7.5H13V9.5C13 10.6046 13.8954 11.5 15 11.5H17V12.5H15C13.8954 12.5 13 13.3954 13 14.5V16.5H11V14.5C11 13.3954 10.1046 12.5 9 12.5H7V11.5H9C10.1046 11.5 11 10.6046 11 9.5ZM14.5 6.5C14.5 6.22386 14.2761 6 14 6H10C9.72385 6 9.5 6.22386 9.5 6.5V9.5C9.5 9.77615 9.27615 10 9 10H6C5.72386 10 5.5 10.2239 5.5 10.5V13.5C5.5 13.7761 5.72386 14 6 14H9C9.27615 14 9.5 14.2239 9.5 14.5V17.5C9.5 17.7761 9.72385 18 10 18H14C14.2761 18 14.5 17.7761 14.5 17.5V14.5C14.5 14.2239 14.7239 14 15 14H18C18.2761 14 18.5 13.7761 18.5 13.5V10.5C18.5 10.2239 18.2761 10 18 10H15C14.7239 10 14.5 9.77615 14.5 9.5V6.5Z" fill="white"/>
</mask>
<g mask="url(#mask0_0_4562)">
<rect width="24" height="24" fill="black"/>
</g>
</svg>
