<svg width="24" height="24" viewBox="0 0 24 24" fill="none" xmlns="http://www.w3.org/2000/svg">
<mask id="mask0_0_4624" style="mask-type:luminance" maskUnits="userSpaceOnUse" x="1" y="1" width="22" height="22">
<path fill-rule="evenodd" clip-rule="evenodd" d="M16.5859 2.7141C17.7201 1.58068 19.2941 0.956138 20.8912 1.0024C22.0023 1.04866 22.9282 1.9739 22.9976 3.08419C23.0439 4.68023 22.4189 6.25314 21.2847 7.38656L18.5302 10.1392L20.0579 18.0268C20.2199 18.8827 19.9653 19.7385 19.3404 20.3631L17.6738 22.0285C17.3266 22.3755 16.8405 22.5142 16.3775 22.3986C15.9146 22.2829 15.5442 21.9591 15.3822 21.4965L13.2064 15.1123L10.3593 17.5179L11.0074 20.0855C11.1694 20.8026 10.9611 21.589 10.4287 22.121L9.94263 22.6068C9.68801 22.8612 9.34081 23 8.97045 23H8.85472C8.46122 22.9769 8.09086 22.7687 7.85939 22.4449L6.28539 20.3168C5.59097 20.3399 4.91971 20.1086 4.41047 19.5997C3.90124 19.0909 3.64662 18.4201 3.69291 17.7261L1.56338 16.1532C1.23932 15.8988 1.03099 15.5287 1.00785 15.1355C0.961553 14.7422 1.12358 14.349 1.40135 14.0714L1.88744 13.5857C2.41982 13.0537 3.18368 12.8224 3.92438 13.0074L6.44742 13.6319L8.85472 10.7637L2.46612 8.58937C2.00317 8.42746 1.67911 8.05736 1.56338 7.59474C1.47079 7.13212 1.60967 6.64637 1.95688 6.32253L3.62347 4.6571C4.2253 4.05569 5.10489 3.77812 5.96133 3.94004L13.8545 5.46669L16.5859 2.7141ZM17.1877 9.3527L20.2199 6.34566C21.0764 5.48982 21.5393 4.31014 21.5162 3.13045C21.493 2.78349 21.2153 2.48278 20.8681 2.48278C19.6876 2.43652 18.5071 2.89914 17.6506 3.75499L14.6183 6.78515C14.4332 6.9702 14.1786 7.0396 13.9471 6.99333L5.66042 5.39729C5.29006 5.30477 4.89656 5.44356 4.64194 5.698L3.09109 7.24778L10.3593 9.72279C10.5907 9.81532 10.7528 10.0004 10.8222 10.2317C10.8917 10.463 10.8454 10.7174 10.6833 10.9025L7.28071 14.9273C7.09554 15.1355 6.81777 15.228 6.54001 15.1586L3.57718 14.4184C3.34571 14.3721 3.09109 14.4415 2.92906 14.6034L2.51241 15.0198L4.89656 16.8009C5.15118 16.9859 5.24377 17.2866 5.17433 17.5873C5.08174 17.9343 5.17433 18.2813 5.42895 18.5357C5.68356 18.7902 6.03077 18.8827 6.37798 18.7902C6.42427 18.767 6.49371 18.767 6.56315 18.767C6.79462 18.767 7.0261 18.8827 7.16498 19.0677L8.94731 21.4502L9.36395 21.0339C9.52598 20.8719 9.59542 20.6175 9.54913 20.3862L8.80842 17.4254C8.73898 17.1479 8.83157 16.8703 9.03989 16.6852L13.0675 13.285C13.2527 13.1462 13.5073 13.0768 13.7388 13.1462C13.9702 13.1924 14.1786 13.3775 14.248 13.6088L16.7247 20.8719L18.2756 19.3222C18.5302 19.0446 18.6459 18.6745 18.5765 18.3044L16.9794 10.0235C16.9331 9.76906 17.0025 9.53775 17.1877 9.3527Z" fill="white"/>
</mask>
<g mask="url(#mask0_0_4624)">
<rect width="24" height="24" fill="black"/>
</g>
</svg>
