<svg width="24" height="24" viewBox="0 0 24 24" fill="none" xmlns="http://www.w3.org/2000/svg">
<mask id="mask0_0_4667" style="mask-type:luminance" maskUnits="userSpaceOnUse" x="2" y="1" width="21" height="22">
<path fill-rule="evenodd" clip-rule="evenodd" d="M17.5119 5.75168H17.5897C19.1073 5.75168 20.9526 6.75962 21.5754 9.58668L22.4012 15.9787C22.6974 18.0417 22.3269 19.6965 21.298 20.8834C20.2744 22.064 18.6541 22.6889 16.6121 22.6889H7.87447C5.63146 22.6889 4.06878 22.1394 3.09642 21.01C2.11988 19.8775 1.79331 18.1788 2.12616 15.9619L2.93837 9.65471C3.47217 6.76276 5.42422 5.75168 6.93561 5.75168H6.93726C7.06599 4.54854 7.60852 3.4039 8.46921 2.54593C9.45832 1.56311 10.8221 1 12.2152 1H12.2372C14.9734 1 17.2337 3.08509 17.5119 5.75168ZM15.9296 5.75168C15.6607 3.95315 14.1055 2.57001 12.2341 2.57001H12.2184C11.2335 2.57001 10.2737 2.96669 9.57764 3.65854C9.01054 4.22309 8.63969 4.9653 8.51981 5.75168H15.9296ZM4.48847 9.89858C4.93121 7.50799 6.474 7.32168 6.93558 7.32168H17.5896C18.7661 7.32168 19.683 8.29509 20.0305 9.85567L20.8458 16.1901C21.0761 17.7947 20.8291 19.0276 20.1111 19.8556C19.2067 20.9001 17.709 21.1189 16.6121 21.1189H7.87445C6.11604 21.1189 4.94168 20.7484 4.28541 19.9864C3.62078 19.215 3.41773 17.9402 3.68044 16.1786L4.48847 9.89858ZM15.338 11.8057H15.2899C14.8566 11.8057 14.5049 11.454 14.5049 11.0207C14.5049 10.5874 14.8566 10.2357 15.2899 10.2357C15.7232 10.2357 16.099 10.5874 16.099 11.0207C16.099 11.454 15.7713 11.8057 15.338 11.8057ZM9.18764 11.8057H9.23474C9.66807 11.8057 9.99672 11.454 9.99672 11.0207C9.99672 10.5874 9.62097 10.2357 9.18764 10.2357C8.75432 10.2357 8.40264 10.5874 8.40264 11.0207C8.40264 11.454 8.75432 11.8057 9.18764 11.8057Z" fill="white"/>
</mask>
<g mask="url(#mask0_0_4667)">
<rect width="24" height="24" fill="black"/>
</g>
</svg>
