<svg width="24" height="24" viewBox="0 0 24 24" fill="none" xmlns="http://www.w3.org/2000/svg">
<mask id="mask0_0_4733" style="mask-type:luminance" maskUnits="userSpaceOnUse" x="3" y="2" width="17" height="20">
<path fill-rule="evenodd" clip-rule="evenodd" d="M19.3804 4.77854C18.5918 4.00531 12.635 2 11.4997 2C10.3635 2 4.40668 4.00531 3.62012 4.77854C3.12639 5.26194 3.0086 5.67572 3 6.90642L3.00029 7.28105C3.00261 7.61191 3.00965 7.99352 3.01784 8.43771L3.01793 8.44233L3.01867 8.48325C3.03664 9.47961 3.06101 10.8309 3.06101 12.6887C3.06101 19.4504 10.9467 21.8693 11.2823 21.9686C11.3535 21.9902 11.4266 22 11.4997 22C11.5729 22 11.646 21.9902 11.7172 21.9686C12.0528 21.8693 19.9385 19.4504 19.9385 12.6887C19.9385 10.828 19.9628 9.47676 19.9808 8.48045L19.9816 8.43938L19.9816 8.43486C20.0277 5.94316 20.0373 5.42268 19.3804 4.77854ZM4.67121 5.83081C5.28944 5.32482 10.6501 3.47377 11.4997 3.47377C12.3494 3.47377 17.7111 5.32482 18.3173 5.82099C18.5106 6.00963 18.5177 6.32207 18.4796 8.41187C18.4605 9.41993 18.4355 10.7905 18.4355 12.6887C18.4355 17.784 12.6991 20.0654 11.4987 20.485C10.2974 20.0674 4.564 17.7988 4.564 12.6887C4.564 10.8218 4.5397 9.46537 4.52177 8.46188L4.52091 8.41482C4.48183 6.32305 4.48884 6.01061 4.67121 5.83081ZM11.0159 8.63195V8.38632H12.0179V8.63195C12.0179 9.9885 13.1394 11.0882 14.5228 11.0882H15.0238V12.0707H14.5228C13.1394 12.0707 12.0179 13.1705 12.0179 14.527V14.7726H11.0159V14.527C11.0159 13.1705 9.89437 12.0707 8.51092 12.0707H8.00993V11.0882H8.51092C9.89437 11.0882 11.0159 9.9885 11.0159 8.63195ZM13.5209 7.89507C13.5209 7.35243 13.0723 6.91256 12.5189 6.91256H10.5149C9.9615 6.91256 9.51291 7.35243 9.51291 7.89507V8.63195C9.51291 9.17459 9.06432 9.61446 8.51092 9.61446H7.50894C6.95554 9.61446 6.50695 10.0543 6.50695 10.597V12.562C6.50695 13.1046 6.95554 13.5445 7.50894 13.5445H8.51092C9.06432 13.5445 9.51291 13.9844 9.51291 14.527V15.2639C9.51291 15.8065 9.9615 16.2464 10.5149 16.2464H12.5189C13.0723 16.2464 13.5209 15.8065 13.5209 15.2639V14.527C13.5209 13.9844 13.9694 13.5445 14.5228 13.5445H15.5248C16.0782 13.5445 16.5268 13.1046 16.5268 12.562V10.597C16.5268 10.0543 16.0782 9.61446 15.5248 9.61446H14.5228C13.9694 9.61446 13.5209 9.17459 13.5209 8.63195V7.89507Z" fill="white"/>
</mask>
<g mask="url(#mask0_0_4733)">
<rect width="24" height="24" fill="black"/>
</g>
</svg>
