<svg width="24" height="24" viewBox="0 0 24 24" fill="none" xmlns="http://www.w3.org/2000/svg">
<mask id="mask0_0_4613" style="mask-type:luminance" maskUnits="userSpaceOnUse" x="1" y="1" width="22" height="22">
<path fill-rule="evenodd" clip-rule="evenodd" d="M14.4032 1.76991C12.8975 0.70125 10.8506 0.745708 9.39225 1.90164L2.67569 7.29226C1.94737 7.91931 1.5098 8.85021 1.50005 9.83749L1.5 18.5618L1.50487 18.771C1.61494 21.127 3.57535 23 5.97291 23H7.89696L8.05674 22.9944C9.11238 22.9204 9.9687 22.1185 10.1157 21.0872L10.121 21.03L10.1308 21.0007C10.1481 20.9271 10.1572 20.8503 10.1572 20.7714V17.7047L10.1641 17.6303C10.2001 17.4368 10.3739 17.287 10.5877 17.2856L13.4671 17.2856L13.5456 17.2924C13.749 17.3283 13.9005 17.501 13.9005 17.7047V20.7809L13.9059 20.9371C13.985 22.0722 14.9226 22.9729 16.0798 22.9997L18.0271 23L18.2375 22.9952C20.6081 22.8862 22.5 20.9451 22.5 18.5618V9.83785L22.4907 9.62535C22.4173 8.63937 21.9298 7.73772 21.1449 7.13831L14.5812 1.90349L14.4032 1.76991ZM10.7811 3.36201C11.5546 2.84585 12.5941 2.88047 13.3366 3.46899L19.9145 8.71487L20.032 8.814C20.329 9.09046 20.4947 9.46081 20.5001 9.85156L20.5 18.5618L20.4948 18.7219C20.4112 19.9919 19.3404 21 18.0271 21H16.103L16.0517 20.991C15.9685 20.9637 15.9005 20.8785 15.9005 20.7812V17.7047L15.8953 17.5454C15.8128 16.2817 14.7551 15.2856 13.4671 15.2856H10.581L10.4213 15.2918C9.15419 15.3812 8.15719 16.426 8.15722 17.7047L8.157 20.581L8.1447 20.6548C8.14026 20.6931 8.13797 20.732 8.13797 20.7714C8.13797 20.8954 8.03231 21 7.89696 21H5.97291L5.81007 20.9948C4.5183 20.9121 3.5 19.8524 3.5 18.5618V9.84737L3.5089 9.70555C3.55233 9.32985 3.75174 8.9777 4.06597 8.7396L10.6393 3.46524L10.7811 3.36201Z" fill="white"/>
</mask>
<g mask="url(#mask0_0_4613)">
<rect width="24" height="24" fill="black"/>
</g>
</svg>
