<svg width="24" height="24" viewBox="0 0 24 24" fill="none" xmlns="http://www.w3.org/2000/svg">
<mask id="mask0_0_4433" style="mask-type:luminance" maskUnits="userSpaceOnUse" x="1" y="1" width="22" height="22">
<path fill-rule="evenodd" clip-rule="evenodd" d="M7.65449 1.75024H16.3035C19.8425 1.75024 22.2075 4.29053 22.2075 7.90424V16.0532C22.2075 19.6671 19.8423 22.2072 16.3025 22.2072H7.65449C4.11545 22.2072 1.75049 19.667 1.75049 16.0532V7.90424C1.75049 4.29339 4.1209 1.75024 7.65449 1.75024ZM16.3035 3.75024H7.65449C5.25813 3.75024 3.75049 5.36775 3.75049 7.90424V16.0532C3.75049 16.5952 3.81891 17.095 3.94989 17.546L4.63914 16.7102L5.31962 15.8724C6.65891 14.213 7.91982 13.4769 9.58966 14.1763C9.88448 14.3 10.1249 14.4336 10.4716 14.6556L10.9724 14.9813C11.5622 15.3552 11.7868 15.3981 12.1729 15.189C12.557 14.9811 12.8361 14.6787 13.2733 14.0045L13.7703 13.2107L13.9423 12.9452L14.0978 12.7198L14.2555 12.508C15.3843 11.0471 17.168 10.565 18.7239 11.5009C18.9303 11.6253 19.1181 11.749 19.3044 11.8848L19.5848 12.0993C19.6794 12.1749 19.7757 12.2552 19.8759 12.3417L20.1903 12.6214L20.2075 12.6375V7.90424C20.2075 5.36441 18.7047 3.75024 16.3035 3.75024ZM20.2075 15.3954L20.016 15.2177L19.1938 14.4273L18.8867 14.1401C18.8389 14.0962 18.7926 14.0542 18.7477 14.0139L18.4919 13.7913C18.4514 13.7571 18.4117 13.7243 18.3726 13.6927L18.1443 13.5159L17.9211 13.3592C17.8464 13.3094 17.7707 13.2616 17.6923 13.2143C17.0695 12.8397 16.3834 13.0251 15.8384 13.7305L15.7181 13.8927L15.5925 14.0759L15.3614 14.4379L15.2083 14.6855C14.4492 15.9155 13.9819 16.4841 13.1252 16.9477C12.0392 17.5361 11.1442 17.4093 10.0895 16.7856L9.84614 16.6351L9.41551 16.3544L9.17974 16.2078L8.98813 16.101C8.92893 16.0705 8.87305 16.0445 8.81644 16.0208C8.24537 15.7816 7.71147 16.0933 6.87588 17.1286L6.18911 17.9741L5.06648 19.3355C5.72278 19.8974 6.60239 20.2072 7.65449 20.2072H16.3025C18.7046 20.2072 20.2075 18.5932 20.2075 16.0532V15.3954ZM6.01239 8.78544C6.01239 7.2144 7.28687 5.93944 8.85739 5.93944C10.4287 5.93944 11.7034 7.21416 11.7034 8.78544C11.7034 10.3567 10.4287 11.6314 8.85739 11.6314C7.28687 11.6314 6.01239 10.3565 6.01239 8.78544ZM9.70339 8.78544C9.70339 8.31873 9.3241 7.93944 8.85739 7.93944C8.3916 7.93944 8.01239 8.3188 8.01239 8.78544C8.01239 9.25209 8.3916 9.63144 8.85739 9.63144C9.3241 9.63144 9.70339 9.25216 9.70339 8.78544Z" fill="white"/>
</mask>
<g mask="url(#mask0_0_4433)">
<rect width="24" height="24" fill="black"/>
</g>
</svg>
