<svg width="24" height="24" viewBox="0 0 24 24" fill="none" xmlns="http://www.w3.org/2000/svg">
<mask id="mask0_0_4583" style="mask-type:luminance" maskUnits="userSpaceOnUse" x="1" y="3" width="22" height="18">
<path fill-rule="evenodd" clip-rule="evenodd" d="M12 5.84211C12.7908 5.84211 13.4318 5.20588 13.4318 4.42105C13.4318 3.63623 12.7908 3 12 3C11.2092 3 10.5682 3.63623 10.5682 4.42105C10.5682 5.20588 11.2092 5.84211 12 5.84211ZM3.40909 16.2632C3.40909 11.5542 7.25538 7.73684 12 7.73684C16.7446 7.73684 20.5909 11.5542 20.5909 16.2632H21.7841C22.1795 16.2632 22.5 16.5813 22.5 16.9737C22.5 17.3661 22.1795 17.6842 21.7841 17.6842H20.5909H19.1591H4.84091H3.40909H2.21591C1.82052 17.6842 1.5 17.3661 1.5 16.9737C1.5 16.5813 1.82052 16.2632 2.21591 16.2632H3.40909ZM19.1591 16.2632C19.1591 12.339 15.9539 9.15789 12 9.15789C8.04613 9.15789 4.84091 12.339 4.84091 16.2632H19.1591ZM4.84091 20.2895C4.84091 19.8971 5.16143 19.5789 5.55682 19.5789H18.4432C18.8386 19.5789 19.1591 19.8971 19.1591 20.2895C19.1591 20.6819 18.8386 21 18.4432 21H5.55682C5.16143 21 4.84091 20.6819 4.84091 20.2895Z" fill="white"/>
</mask>
<g mask="url(#mask0_0_4583)">
<rect width="24" height="24" fill="black"/>
</g>
</svg>
