<svg width="24" height="24" viewBox="0 0 24 24" fill="none" xmlns="http://www.w3.org/2000/svg">
<mask id="mask0_0_4657" style="mask-type:luminance" maskUnits="userSpaceOnUse" x="4" y="5" width="16" height="14">
<path fill-rule="evenodd" clip-rule="evenodd" d="M6 6C6 6.55228 5.55228 7 5 7C4.44772 7 4 6.55228 4 6C4 5.44772 4.44772 5 5 5C5.55228 5 6 5.44772 6 6ZM5 13C5.55228 13 6 12.5523 6 12C6 11.4477 5.55228 11 5 11C4.44772 11 4 11.4477 4 12C4 12.5523 4.44772 13 5 13ZM5 19C5.55228 19 6 18.5523 6 18C6 17.4477 5.55228 17 5 17C4.44772 17 4 17.4477 4 18C4 18.5523 4.44772 19 5 19ZM9 5C8.44772 5 8 5.44772 8 6C8 6.55228 8.44771 7 9 7H19C19.5523 7 20 6.55228 20 6C20 5.44772 19.5523 5 19 5H9ZM8 12C8 11.4477 8.44772 11 9 11H19C19.5523 11 20 11.4477 20 12C20 12.5523 19.5523 13 19 13H9C8.44771 13 8 12.5523 8 12ZM9 17C8.44772 17 8 17.4477 8 18C8 18.5523 8.44771 19 9 19H19C19.5523 19 20 18.5523 20 18C20 17.4477 19.5523 17 19 17H9Z" fill="white"/>
</mask>
<g mask="url(#mask0_0_4657)">
<rect width="24" height="24" fill="black"/>
</g>
</svg>
