<svg width="24" height="24" viewBox="0 0 24 24" fill="none" xmlns="http://www.w3.org/2000/svg">
<mask id="mask0_0_4512" style="mask-type:luminance" maskUnits="userSpaceOnUse" x="2" y="1" width="19" height="22">
<path fill-rule="evenodd" clip-rule="evenodd" d="M11.5 1C16.7382 1 21 5.20707 21 10.3788C21 16.7362 13.5658 23 11.5 23C9.43419 23 2 16.7362 2 10.3788C2 5.20707 6.26176 1 11.5 1ZM11.5 2.6923C7.21406 2.6923 3.72727 6.14123 3.72727 10.3788C3.72727 15.7705 10.2034 21.0234 11.5 21.3032C12.7966 21.0223 19.2727 15.7693 19.2727 10.3788C19.2727 6.14123 15.7859 2.6923 11.5 2.6923ZM11.5012 6.64102C13.5647 6.64102 15.2436 8.28595 15.2436 10.3088C15.2436 12.3306 13.5647 13.9744 11.5012 13.9744C9.43764 13.9744 7.75874 12.3306 7.75874 10.3088C7.75874 8.28595 9.43764 6.64102 11.5012 6.64102ZM11.5012 8.33333C10.3899 8.33333 9.48601 9.21897 9.48601 10.3088C9.48601 11.3975 10.3899 12.282 11.5012 12.282C12.6124 12.282 13.5163 11.3975 13.5163 10.3088C13.5163 9.21897 12.6124 8.33333 11.5012 8.33333Z" fill="white"/>
</mask>
<g mask="url(#mask0_0_4512)">
<rect width="24" height="24" fill="black"/>
</g>
</svg>
