<svg width="24" height="24" viewBox="0 0 24 24" fill="none" xmlns="http://www.w3.org/2000/svg">
<mask id="mask0_0_4649" style="mask-type:luminance" maskUnits="userSpaceOnUse" x="1" y="1" width="22" height="22">
<path fill-rule="evenodd" clip-rule="evenodd" d="M11.9985 2.61898C13.7458 1.51197 16.0669 1.20614 18.0721 1.85011C22.4339 3.25972 23.7879 8.02483 22.5768 11.8165C20.7081 17.7715 12.727 22.2136 12.3885 22.3999C12.2682 22.4666 12.1349 22.5 12.0017 22.5C11.8684 22.5 11.7363 22.4677 11.6159 22.402C11.2796 22.2179 3.35655 17.8415 1.42549 11.8175C1.42442 11.8175 1.42442 11.8165 1.42442 11.8165C0.212273 8.02376 1.56197 3.25756 5.91946 1.85011C7.9655 1.18676 10.1953 1.47859 11.9985 2.61898ZM6.41378 3.38786C2.88802 4.52718 2.00255 8.32743 2.96002 11.3243C4.46661 16.0216 10.4188 19.8197 12.0006 20.7598C13.5878 19.81 19.583 15.9699 21.0412 11.3286C21.9987 8.32851 21.11 4.52826 17.5788 3.38786C15.8681 2.83759 13.8726 3.17249 12.4949 4.24074C12.2069 4.46257 11.8072 4.46688 11.517 4.2472C10.0577 3.14772 8.1514 2.82574 6.41378 3.38786Z" fill="white"/>
</mask>
<g mask="url(#mask0_0_4649)">
<rect width="24" height="24" fill="black"/>
</g>
</svg>
