<svg width="24" height="24" viewBox="0 0 24 24" fill="none" xmlns="http://www.w3.org/2000/svg">
<mask id="mask0_0_4654" style="mask-type:luminance" maskUnits="userSpaceOnUse" x="1" y="1" width="22" height="22">
<path d="M7.90794 1.50017C8.60093 1.52135 9.27193 1.64292 9.92202 1.86508H9.98692C10.0309 1.88608 10.0639 1.90929 10.0859 1.93029C10.329 2.00876 10.5589 2.09718 10.7789 2.21876L11.1969 2.40665C11.3619 2.49507 11.5599 2.65975 11.6699 2.72717C11.7799 2.79238 11.9009 2.8598 11.9999 2.93606C13.222 1.99771 14.7059 1.48929 16.2349 1.50017C16.9289 1.50017 17.6219 1.59871 18.2808 1.82087C22.3409 3.14716 23.8039 7.62342 22.5818 11.536C21.8888 13.5354 20.7558 15.3601 19.2719 16.8511C17.1478 18.9179 14.817 20.7526 12.3079 22.3331L12.0329 22.5L11.7469 22.3221C9.22903 20.7526 6.88495 18.9179 4.74108 16.84C3.2671 15.3491 2.13301 13.5354 1.42901 11.536C0.186028 7.62342 1.64901 3.14716 5.75307 1.79766C6.07207 1.68713 6.40096 1.60977 6.73095 1.56666H6.86295C7.17205 1.52135 7.47895 1.50017 7.78694 1.50017H7.90794Z" fill="white"/>
</mask>
<g mask="url(#mask0_0_4654)">
<rect width="24" height="24" fill="black"/>
</g>
</svg>
