<svg width="24" height="24" viewBox="0 0 24 24" fill="none" xmlns="http://www.w3.org/2000/svg">
<mask id="mask0_0_4569" style="mask-type:luminance" maskUnits="userSpaceOnUse" x="2" y="2" width="20" height="20">
<path fill-rule="evenodd" clip-rule="evenodd" d="M7.5 3.5H16.5C18.7092 3.5 20.5 5.29086 20.5 7.5V16.5C20.5 18.7092 18.7092 20.5 16.5 20.5H7.5C5.29086 20.5 3.5 18.7092 3.5 16.5V7.5C3.5 5.29086 5.29086 3.5 7.5 3.5ZM2 7.5C2 4.46244 4.46244 2 7.5 2H16.5C19.5375 2 22 4.46244 22 7.5V16.5C22 19.5375 19.5375 22 16.5 22H7.5C4.46244 22 2 19.5375 2 16.5V7.5ZM11.057 17V13.3169H12.642C13.4694 13.3169 14.1722 13.1733 14.7505 12.8862C15.3287 12.5891 15.7623 12.1881 16.0514 11.6831C16.3505 11.1683 16.5 10.5842 16.5 9.9307C16.5 8.8812 16.1711 8.0495 15.5131 7.43565C14.8552 6.81188 13.8981 6.5 12.642 6.5H8.5V17H11.057ZM13.8982 9.9307C13.8982 10.8317 13.3848 11.2822 12.358 11.2822H11.057V8.5495H12.358C13.3848 8.5495 13.8982 9.0099 13.8982 9.9307Z" fill="white"/>
</mask>
<g mask="url(#mask0_0_4569)">
<rect width="24" height="24" fill="black"/>
</g>
</svg>
