<svg width="24" height="24" viewBox="0 0 24 24" fill="none" xmlns="http://www.w3.org/2000/svg">
<mask id="mask0_0_4724" style="mask-type:luminance" maskUnits="userSpaceOnUse" x="0" y="1" width="24" height="22">
<path fill-rule="evenodd" clip-rule="evenodd" d="M9.23966 14.8041C12.9913 14.8041 17.9793 15.2278 17.9793 18.8932C17.9793 22.7544 12.1673 22.9861 9.67411 23H8.76895C6.11072 22.9861 0.5 22.7558 0.5 18.9163C0.5 15.0508 6.31212 14.8189 8.80521 14.8049L9.10474 14.8041C9.15142 14.8041 9.19643 14.8041 9.23966 14.8041ZM9.23966 16.5358C6.04056 16.5358 2.22675 16.9479 2.22675 18.9163C2.22675 20.4772 4.58663 21.2691 9.23966 21.2691C13.8927 21.2691 16.2526 20.4691 16.2526 18.8932C16.2526 17.3289 13.8927 16.5358 9.23966 16.5358ZM19.7322 14.2648C22.8473 14.7324 23.5 16.1789 23.5 17.3092C23.5 18.1508 23.1374 19.2903 21.4072 19.9472C21.307 19.9853 21.2034 20.0037 21.101 20.0037C20.7522 20.0037 20.4241 19.7901 20.294 19.445C20.1248 18.9982 20.3493 18.4971 20.7948 18.3286C21.7732 17.9568 21.7732 17.5031 21.7732 17.3092C21.7732 16.6546 21.0008 16.2067 19.4778 15.9792C19.0058 15.9076 18.6801 15.4666 18.7503 14.9945C18.8216 14.5211 19.2695 14.2036 19.7322 14.2648ZM9.23966 1C12.4986 1 15.151 3.65991 15.151 6.92824C15.1578 8.50295 14.5489 9.98991 13.4391 11.1098C12.3317 12.2308 10.8524 12.8507 9.2788 12.8565H9.23966C5.97955 12.8565 3.32727 10.1966 3.32727 6.92824C3.32727 3.65991 5.97955 1 9.23966 1ZM17.3987 2.2974C19.6607 2.66914 21.3023 4.60982 21.3023 6.91069C21.2977 9.22542 19.5744 11.2134 17.2928 11.5344C17.2525 11.5401 17.2122 11.5425 17.1719 11.5425C16.7483 11.5425 16.3788 11.2296 16.3177 10.7967C16.2521 10.3233 16.5802 9.88462 17.0522 9.81882C18.4888 9.61679 19.5732 8.36649 19.5756 6.90954C19.5756 5.46182 18.5418 4.24039 17.1201 4.00718C16.6493 3.92868 16.3304 3.4842 16.4075 3.01202C16.4847 2.53984 16.9302 2.22236 17.3987 2.2974ZM9.23966 2.73172C6.93157 2.73172 5.05401 4.61467 5.05401 6.92824C5.05401 9.24181 6.93157 11.1248 9.23966 11.1248H9.27535C10.3851 11.1201 11.4303 10.6826 12.2143 9.88947C12.9994 9.09866 13.4288 8.04693 13.4242 6.9317C13.4242 4.61467 11.5466 2.73172 9.23966 2.73172Z" fill="white"/>
</mask>
<g mask="url(#mask0_0_4724)">
<rect width="24" height="24" fill="black"/>
</g>
</svg>
