<svg width="24" height="24" viewBox="0 0 24 24" fill="none" xmlns="http://www.w3.org/2000/svg">
<mask id="mask0_0_4706" style="mask-type:luminance" maskUnits="userSpaceOnUse" x="0" y="0" width="24" height="24">
<path fill-rule="evenodd" clip-rule="evenodd" d="M4.20306 0.813227C3.47834 1.35995 3.54413 2.39018 4.19232 2.87919L10.4854 7.6268L7.42562 9.67755L5.26566 8.52264L5.25957 8.51951C4.66631 8.21574 3.99173 7.99556 3.25896 8.00692C2.51245 8.0184 1.766 8.26964 1.04594 8.8114C0.269031 9.3959 0.46303 10.4441 1.11432 10.8723L5.36235 13.6652C5.93905 14.103 7.23517 14.5148 8.77771 13.7973C9.46001 13.48 11.9965 12.0596 14.834 10.4476C17.6944 8.82249 20.9169 6.97019 23.0115 5.76033C23.6896 5.36866 24.24 4.43725 23.893 3.52059C23.5218 2.54001 22.3762 2.16431 20.8896 2.26109C18.1808 2.43742 16.2694 3.72086 14.9306 4.61971L14.827 4.68927L8.86289 0.875123L8.86177 0.874445C7.8598 0.228946 6.97926 -0.0467759 6.15772 0.00643427C5.33302 0.0598468 4.70133 0.437317 4.20306 0.813227ZM11.7432 6.58537L5.45722 1.84317C5.71974 1.68356 5.9638 1.59373 6.23038 1.57647C6.60374 1.55228 7.15452 1.66322 7.98982 2.20148L7.99204 2.20292L14.1046 6.112C14.5341 6.38666 15.096 6.38575 15.5365 6.09235C15.6102 6.04328 15.6846 5.99349 15.7597 5.94324C17.1088 5.04042 18.6952 3.97869 20.9628 3.83108C21.5996 3.78965 21.9842 3.86241 22.1974 3.94802C22.3006 3.98946 22.3555 4.03044 22.3825 4.05589C22.4081 4.08004 22.4145 4.09557 22.4164 4.10053C22.4255 4.12474 22.413 4.30295 22.2407 4.4024C20.1483 5.61102 16.9293 7.46131 14.0732 9.08398C11.194 10.7196 8.73883 12.092 8.13365 12.3736C7.13069 12.84 6.44767 12.4989 6.3295 12.4045L6.30181 12.3824L2.38318 9.80611C2.69404 9.64649 2.98308 9.58423 3.25379 9.58006C3.65006 9.57392 4.06754 9.69191 4.51298 9.91913L6.7991 11.1415C7.22522 11.3693 7.74719 11.3408 8.15519 11.0673L11.6566 8.72069C12.4128 8.21385 12.457 7.12393 11.7432 6.58537ZM1.17841 22.0423C0.527594 22.0423 0 22.4806 0 23.0212C0 23.5617 0.527594 24 1.17841 24H22.3898C23.0406 24 23.5682 23.5617 23.5682 23.0212C23.5682 22.4806 23.0406 22.0423 22.3898 22.0423H1.17841Z" fill="white"/>
</mask>
<g mask="url(#mask0_0_4706)">
<rect width="24" height="24" fill="black"/>
</g>
</svg>
