<svg width="24" height="24" viewBox="0 0 24 24" fill="none" xmlns="http://www.w3.org/2000/svg">
<mask id="mask0_0_4712" style="mask-type:luminance" maskUnits="userSpaceOnUse" x="0" y="0" width="24" height="24">
<path fill-rule="evenodd" clip-rule="evenodd" d="M12.0091 0.103484C11.1919 -0.240128 10.3505 0.317779 10.2522 1.10213L9.2975 8.71733L6.06568 7.14082L5.99099 4.7587L5.99067 4.75201C5.95873 4.10428 5.81626 3.4288 5.44909 2.81725C5.07508 2.19423 4.49785 1.68818 3.68716 1.34605C2.81246 0.976904 2.01838 1.65155 1.97312 2.40884L1.67793 7.34841C1.58811 8.04764 1.87137 9.33991 3.2324 10.2889C3.83436 10.7087 6.27632 12.1519 9.02763 13.755C11.8013 15.3712 14.9443 17.1814 16.9921 18.3552C17.6551 18.7351 18.7133 18.7443 19.3212 18.005C19.9715 17.2141 19.7311 16.0662 18.9236 14.8615C17.4524 12.6665 15.4315 11.6828 14.0161 10.9939L13.9066 10.9406L14.2304 4.05769L14.2304 4.05648C14.2888 2.89787 14.0929 2.02184 13.6469 1.35598C13.1993 0.687586 12.571 0.339741 12.0091 0.103484ZM10.7942 9.26849L11.7478 1.66198C12.0112 1.80521 12.2065 1.96692 12.3512 2.18297C12.5539 2.48561 12.7286 3.00351 12.6798 3.96945L12.6797 3.97206L12.3478 11.0262C12.3245 11.5218 12.5994 11.9945 13.0632 12.2224C13.1407 12.2605 13.2193 12.2988 13.2985 12.3376C14.7223 13.0333 16.3966 13.8514 17.6282 15.6889C17.9741 16.205 18.1 16.5643 18.1314 16.7857C18.1467 16.8927 18.1387 16.959 18.1303 16.9941C18.1223 17.0274 18.1122 17.0404 18.109 17.0444C18.093 17.0639 17.9357 17.1402 17.7673 17.0438C15.7215 15.8712 12.582 14.063 9.81264 12.4493C7.02095 10.8226 4.65929 9.42445 4.12531 9.05211C3.24045 8.43507 3.19643 7.69344 3.21873 7.54791L3.22397 7.51386L3.49626 2.9573C3.78325 3.14124 3.97709 3.35425 4.11273 3.58018C4.31129 3.91089 4.41498 4.32002 4.43964 4.80593L4.51874 7.32734C4.5335 7.79733 4.81237 8.22295 5.2433 8.43316L8.94151 10.2371C9.74019 10.6267 10.6859 10.1323 10.7942 9.26849ZM1.65 22.0902C1.01487 22.0902 0.5 22.5178 0.5 23.0451C0.5 23.5725 1.01487 24 1.65 24H22.35C22.9851 24 23.5 23.5725 23.5 23.0451C23.5 22.5178 22.9851 22.0902 22.35 22.0902H1.65Z" fill="white"/>
</mask>
<g mask="url(#mask0_0_4712)">
<rect width="24" height="24" fill="black"/>
</g>
</svg>
