<svg width="24" height="24" viewBox="0 0 24 24" fill="none" xmlns="http://www.w3.org/2000/svg">
<mask id="mask0_0_4597" style="mask-type:luminance" maskUnits="userSpaceOnUse" x="2" y="2" width="20" height="20">
<path fill-rule="evenodd" clip-rule="evenodd" d="M7.5 3.5H16.5C18.7092 3.5 20.5 5.29086 20.5 7.5V11.517L20.1363 11.6261C19.4941 11.8187 18.7996 11.715 18.2417 11.3431L17.9088 11.1212C16.7597 10.3551 15.2826 10.2826 14.064 10.9326L13.4155 11.2784C12.7102 11.6546 11.8583 11.6283 11.1775 11.2094L10.8587 11.0132C9.72405 10.3149 8.30415 10.2711 7.1286 10.8981L6.07715 11.4588C5.51383 11.7593 4.8494 11.8063 4.2494 11.5881L3.5 11.3156V7.5C3.5 5.29086 5.29086 3.5 7.5 3.5ZM3.5 12.9117V15.5656L4.2494 15.8381C4.8494 16.0563 5.51383 16.0093 6.07715 15.7088L7.1286 15.1481C8.30415 14.5212 9.72405 14.5649 10.8587 15.2632L11.1775 15.4594C11.8583 15.8783 12.7102 15.9046 13.4155 15.5284L14.064 15.1826C15.2826 14.5326 16.7597 14.6051 17.9088 15.3712L18.2417 15.5931C18.7996 15.965 19.4941 16.0688 20.1363 15.8761L20.5 15.767V13.0823C19.4487 13.3765 18.3199 13.198 17.4096 12.5912L17.0768 12.3693C16.3874 11.9096 15.501 11.8661 14.7699 12.2561L14.1214 12.602C12.9459 13.2289 11.526 13.1851 10.3913 12.4869L10.0725 12.2907C9.39175 11.8717 8.5398 11.8455 7.8345 12.2216L6.78303 12.7824C5.84417 13.2832 4.73678 13.3615 3.73679 12.9978L3.5 12.9117ZM20.408 17.3569C19.3832 17.6158 18.2934 17.4304 17.4096 16.8412L17.0768 16.6193C16.3874 16.1596 15.501 16.1161 14.7699 16.5061L14.1214 16.852C12.9458 17.4789 11.526 17.4351 10.3913 16.7369L10.0725 16.5407C9.39175 16.1217 8.5398 16.0955 7.8345 16.4716L6.78303 17.0324C5.84417 17.5332 4.73678 17.6115 3.73679 17.2478L3.55805 17.1828C3.88206 19.0667 5.52365 20.5 7.5 20.5H16.5C18.4151 20.5 20.0158 19.1543 20.408 17.3569ZM2 7.5C2 4.46244 4.46244 2 7.5 2H16.5C19.5375 2 22 4.46244 22 7.5V16.5C22 19.5375 19.5375 22 16.5 22H7.5C4.46244 22 2 19.5375 2 16.5V7.5Z" fill="white"/>
</mask>
<g mask="url(#mask0_0_4597)">
<rect width="24" height="24" fill="black"/>
</g>
</svg>
