<svg width="24" height="24" viewBox="0 0 24 24" fill="none" xmlns="http://www.w3.org/2000/svg">
<mask id="mask0_0_4397" style="mask-type:luminance" maskUnits="userSpaceOnUse" x="1" y="1" width="22" height="22">
<path fill-rule="evenodd" clip-rule="evenodd" d="M13.1761 20.8595C12.5316 21.5074 11.4868 21.5151 10.8378 20.8815C10.8355 20.8789 10.8332 20.8763 10.8309 20.8739C10.8296 20.8724 10.8282 20.8709 10.8268 20.8694C10.823 20.8653 10.8193 20.8613 10.8158 20.8573L10.0229 20.0665C9.39924 19.445 8.57106 19.1029 7.68898 19.1018H6.55943C5.64216 19.1018 4.89756 18.3561 4.89756 17.4399V16.3058C4.89756 15.4248 4.55551 14.5966 3.93299 13.9718L3.1389 13.1777C2.48889 12.532 2.48559 11.4772 3.1312 10.8271L3.1389 10.8197C3.14403 10.8148 3.14917 10.8099 3.1543 10.804L3.93519 10.022C4.55551 9.39724 4.89756 8.56901 4.89756 7.68796V6.56054C4.89756 5.6443 5.64326 4.89855 6.55943 4.89745H7.69118C8.56886 4.89745 9.39704 4.55647 10.0284 3.93282L10.8191 3.13977C11.4648 2.48972 12.5195 2.48642 13.1805 3.14087L13.9746 3.93612C14.5982 4.55538 15.4264 4.89745 16.3074 4.89745H17.438C18.3553 4.89745 19.101 5.6432 19.101 6.56054V7.69016C19.101 8.5712 19.442 9.39834 20.0656 10.0264L20.8586 10.8205C21.1742 11.1351 21.3491 11.552 21.3502 11.9952C21.3513 12.4396 21.1786 12.8587 20.8564 13.1821L20.0645 13.9751C19.442 14.5988 19.101 15.427 19.101 16.308V17.4399C19.101 18.3561 18.3553 19.1018 17.438 19.1018H16.3052C15.4374 19.1018 14.5861 19.4527 13.9702 20.0676L13.1761 20.8595ZM9.66431 22.0408C10.3099 22.681 11.1535 23 11.9971 23C12.8484 23 13.6997 22.6744 14.3453 22.0243L15.135 21.2346C15.444 20.9277 15.8697 20.7517 16.3052 20.7517H17.4391C19.2649 20.7517 20.7508 19.2657 20.7508 17.4399V16.308C20.7508 15.8659 20.9224 15.4512 21.2314 15.1399L22.0376 14.3359C22.6612 13.7078 23.0033 12.8752 23 11.9897C22.9967 11.1043 22.6491 10.2739 22.0233 9.65242L21.2336 8.86158C20.9224 8.5481 20.7508 8.13123 20.7508 7.69016V6.56054C20.7508 4.73356 19.2649 3.24757 17.438 3.24757H16.3074C15.8653 3.24757 15.4495 3.07598 15.1383 2.7669L14.3343 1.96285C13.0375 0.673749 10.9357 0.680349 9.65001 1.97495L8.86362 2.7636C8.54796 3.07488 8.13222 3.24757 7.69118 3.24757H6.55833C4.73258 3.24867 3.24779 4.73466 3.24779 6.56054V7.68796C3.24779 8.12903 3.07511 8.54591 2.76605 8.85718L1.96536 9.66012L1.93567 9.68983C0.674139 10.9877 0.689537 13.0688 1.97416 14.3469L2.76495 15.1366C3.07511 15.449 3.24779 15.8637 3.24779 16.3058V17.4399C3.24779 19.2657 4.73258 20.7517 6.55943 20.7517H7.68788C8.13002 20.7528 8.54576 20.9244 8.85702 21.2335L9.63791 22.0133C9.6467 22.0232 9.65549 22.032 9.66428 22.0408H9.66429H9.66431ZM8.58915 15.4105C8.74972 15.5722 8.9609 15.6525 9.17207 15.6525C9.38324 15.6525 9.59441 15.5722 9.75499 15.4105L15.4093 9.75694C15.7316 9.43465 15.7316 8.91219 15.4093 8.58991C15.0871 8.26763 14.5646 8.26763 14.2424 8.58991L8.58915 14.2446C8.26689 14.5669 8.26689 15.0882 8.58915 15.4105ZM14.7517 15.8479C14.1435 15.8479 13.6464 15.3563 13.6464 14.748C13.6464 14.1398 14.1336 13.6481 14.7418 13.6481H14.7517C15.36 13.6481 15.8516 14.1398 15.8516 14.748C15.8516 15.3563 15.36 15.8479 14.7517 15.8479ZM8.14714 9.24842C8.14714 9.85668 8.64427 10.3483 9.25249 10.3483C9.8607 10.3483 10.3523 9.85668 10.3523 9.24842C10.3523 8.64016 9.8607 8.14849 9.25249 8.14849H9.24259C8.63437 8.14849 8.14714 8.64016 8.14714 9.24842Z" fill="white"/>
</mask>
<g mask="url(#mask0_0_4397)">
<rect width="24" height="24" fill="black"/>
</g>
</svg>
