<svg width="24" height="24" viewBox="0 0 24 24" fill="none" xmlns="http://www.w3.org/2000/svg">
<mask id="mask0_0_4461" style="mask-type:luminance" maskUnits="userSpaceOnUse" x="1" y="1" width="22" height="22">
<path fill-rule="evenodd" clip-rule="evenodd" d="M2.69235 5.79487C2.69235 2.92698 2.69235 2.69231 5.79492 2.69231C8.89748 2.69231 8.89748 2.92698 8.89748 5.82195C8.89748 7.072 8.89748 7.97457 8.59174 8.35477C8.29277 8.72482 7.40487 8.89744 5.79492 8.89744C4.18497 8.89744 3.29707 8.72595 2.9981 8.3559C2.69235 7.97457 2.69235 7.072 2.69235 5.82308V5.79487ZM1.68144 9.41641C2.46554 10.3901 3.89272 10.5897 5.79487 10.5897C7.69703 10.5897 9.12421 10.3901 9.90831 9.41641C10.5897 8.57138 10.5897 7.41723 10.5897 5.79487C10.5897 2.55692 10.3855 1 5.79487 1C1.20421 1 1 2.55692 1 5.79487H1.84615L1 5.82308C1 7.41836 1 8.57138 1.68144 9.41641ZM15.1025 5.79487C15.1025 2.92698 15.1025 2.69231 18.2051 2.69231C21.3077 2.69231 21.3077 2.92698 21.3077 5.82195C21.3077 7.072 21.3077 7.97457 21.0019 8.35477C20.703 8.72482 19.8151 8.89744 18.2051 8.89744C16.5952 8.89744 15.7073 8.72595 15.4083 8.3559C15.1025 7.97457 15.1025 7.072 15.1025 5.82308V5.79487ZM14.0917 9.41641C14.8758 10.3901 16.303 10.5897 18.2051 10.5897C20.1073 10.5897 21.5344 10.3901 22.3185 9.41641C23 8.57138 23 7.41723 23 5.79487C23 2.55692 22.7958 1 18.2051 1C13.6144 1 13.4102 2.55692 13.4102 5.79487H14.2564L13.4102 5.82308C13.4102 7.41836 13.4102 8.57138 14.0917 9.41641ZM5.79492 15.1026C2.69235 15.1026 2.69235 15.3372 2.69235 18.2051V18.2333C2.69235 19.4823 2.69235 20.3848 2.9981 20.7662C3.29707 21.1362 4.18497 21.3077 5.79492 21.3077C7.40487 21.3077 8.29277 21.1351 8.59174 20.765C8.89748 20.3848 8.89748 19.4823 8.89748 18.2322C8.89748 15.3372 8.89748 15.1026 5.79492 15.1026ZM5.79487 23C3.89272 23 2.46554 22.8003 1.68144 21.8267C1 20.9816 1 19.8286 1 18.2333L1.84615 18.2051H1C1 14.9672 1.20421 13.4103 5.79487 13.4103C10.3855 13.4103 10.5897 14.9672 10.5897 18.2051C10.5897 19.8275 10.5897 20.9816 9.90831 21.8267C9.12421 22.8003 7.69703 23 5.79487 23ZM15.1025 18.2051C15.1025 15.3372 15.1025 15.1026 18.2051 15.1026C21.3077 15.1026 21.3077 15.3372 21.3077 18.2322C21.3077 19.4823 21.3077 20.3848 21.0019 20.765C20.703 21.1351 19.8151 21.3077 18.2051 21.3077C16.5952 21.3077 15.7073 21.1362 15.4083 20.7662C15.1025 20.3848 15.1025 19.4823 15.1025 18.2333V18.2051ZM14.0917 21.8267C14.8758 22.8003 16.303 23 18.2051 23C20.1073 23 21.5344 22.8003 22.3185 21.8267C23 20.9816 23 19.8275 23 18.2051C23 14.9672 22.7958 13.4103 18.2051 13.4103C13.6144 13.4103 13.4102 14.9672 13.4102 18.2051H14.2564L13.4102 18.2333C13.4102 19.8286 13.4102 20.9816 14.0917 21.8267Z" fill="white"/>
</mask>
<g mask="url(#mask0_0_4461)">
<rect width="24" height="24" fill="black"/>
</g>
</svg>
