<svg width="24" height="24" viewBox="0 0 24 24" fill="none" xmlns="http://www.w3.org/2000/svg">
<mask id="mask0_0_4344" style="mask-type:luminance" maskUnits="userSpaceOnUse" x="1" y="1" width="22" height="22">
<path fill-rule="evenodd" clip-rule="evenodd" d="M11.7666 1.77808C6.25011 1.77808 1.77808 6.25011 1.77808 11.7666C1.77808 17.2832 6.25011 21.7552 11.7666 21.7552C14.0457 21.7552 16.1465 20.9919 17.8273 19.707L20.8362 22.7081L20.9305 22.7911C21.3232 23.0957 21.8904 23.0672 22.2504 22.7062C22.6404 22.3152 22.6396 21.682 22.2486 21.292L19.2882 18.3393C20.8244 16.5828 21.7552 14.2834 21.7552 11.7666C21.7552 6.25011 17.2832 1.77808 11.7666 1.77808ZM11.7666 3.77808C16.1786 3.77808 19.7552 7.35468 19.7552 11.7666C19.7552 16.1786 16.1786 19.7552 11.7666 19.7552C7.35468 19.7552 3.77808 16.1786 3.77808 11.7666C3.77808 7.35468 7.35468 3.77808 11.7666 3.77808Z" fill="white"/>
</mask>
<g mask="url(#mask0_0_4344)">
<rect width="24" height="24" fill="black"/>
</g>
</svg>
