<svg width="24" height="24" viewBox="0 0 24 24" fill="none" xmlns="http://www.w3.org/2000/svg">
<mask id="mask0_0_4740" style="mask-type:luminance" maskUnits="userSpaceOnUse" x="3" y="2" width="18" height="20">
<path fill-rule="evenodd" clip-rule="evenodd" d="M8.5 3.5C7.67158 3.5 7 4.17158 7 5V14.5H17V5C17 4.17158 16.3285 3.5 15.5 3.5H8.5ZM5.5 5V14.5H5C3.89543 14.5 3 15.3954 3 16.5C3 17.6046 3.89543 18.5 5 18.5H19C20.1045 18.5 21 17.6046 21 16.5C21 15.3954 20.1045 14.5 19 14.5H18.5V5C18.5 3.34315 17.1568 2 15.5 2H8.5C6.84314 2 5.5 3.34315 5.5 5ZM17 16H18.5H19C19.2761 16 19.5 16.2239 19.5 16.5C19.5 16.7761 19.2761 17 19 17H5C4.72386 17 4.5 16.7761 4.5 16.5C4.5 16.2239 4.72386 16 5 16H5.5H7H17ZM6.25 20.5C5.83578 20.5 5.5 20.8358 5.5 21.25C5.5 21.6642 5.83578 22 6.25 22H17.75C18.1642 22 18.5 21.6642 18.5 21.25C18.5 20.8358 18.1642 20.5 17.75 20.5H6.25ZM3 10.25C3 9.8358 3.33579 9.5 3.75 9.5C4.16421 9.5 4.5 9.8358 4.5 10.25V12.75C4.5 13.1642 4.16421 13.5 3.75 13.5C3.33579 13.5 3 13.1642 3 12.75V10.25ZM20.25 9.5C19.8358 9.5 19.5 9.8358 19.5 10.25V12.75C19.5 13.1642 19.8358 13.5 20.25 13.5C20.6642 13.5 21 13.1642 21 12.75V10.25C21 9.8358 20.6642 9.5 20.25 9.5Z" fill="white"/>
</mask>
<g mask="url(#mask0_0_4740)">
<rect width="24" height="24" fill="black"/>
</g>
</svg>
