<svg width="24" height="24" viewBox="0 0 24 24" fill="none" xmlns="http://www.w3.org/2000/svg">
<mask id="mask0_0_4604" style="mask-type:luminance" maskUnits="userSpaceOnUse" x="3" y="2" width="18" height="20">
<path fill-rule="evenodd" clip-rule="evenodd" d="M11.9997 2C13.135 2 19.0918 4.00531 19.8803 4.77854C20.5376 5.42307 20.5276 5.9438 20.4815 8.43938C20.4635 9.43958 20.4385 10.8023 20.4385 12.6887C20.4385 19.4504 12.5528 21.8693 12.2172 21.9686C12.146 21.9902 12.0729 22 11.9997 22C11.9266 22 11.8534 21.9902 11.7823 21.9686C11.4466 21.8693 3.56102 19.4504 3.56102 12.6887C3.56102 10.8053 3.53597 9.44252 3.51793 8.44233C3.5097 7.99617 3.50262 7.61309 3.50029 7.28105L3.5 6.90642C3.5086 5.67572 3.6264 5.26194 4.12012 4.77854C4.90666 4.00531 10.8635 2 11.9997 2ZM11.9997 3.47377C11.15 3.47377 5.78941 5.32482 5.17118 5.83081C4.98882 6.01061 4.98181 6.32305 5.02089 8.41482C5.03892 9.42287 5.06397 10.7925 5.06397 12.6887C5.06397 17.7988 10.7973 20.0674 11.9987 20.485C13.1991 20.0654 18.9355 17.784 18.9355 12.6887C18.9355 10.7905 18.9605 9.41993 18.9796 8.41187C19.0176 6.32207 19.0106 6.00963 18.8172 5.82099C18.211 5.32482 12.8494 3.47377 11.9997 3.47377ZM15.7286 9.21114C16.0222 9.49902 16.0222 9.96571 15.7286 10.2536L11.8229 14.0844C11.7106 14.1952 11.5658 14.267 11.4102 14.2914L11.2918 14.3006C11.0924 14.3006 10.901 14.2229 10.7598 14.0844L8.864 12.2235C8.57142 11.9356 8.57142 11.468 8.86501 11.1811C9.15759 10.8932 9.63453 10.8932 9.92811 11.1811L11.2918 12.5202L14.6665 9.21114C14.9601 8.92327 15.435 8.92327 15.7286 9.21114Z" fill="white"/>
</mask>
<g mask="url(#mask0_0_4604)">
<rect width="24" height="24" fill="black"/>
</g>
</svg>
