<svg width="24" height="24" viewBox="0 0 24 24" fill="none" xmlns="http://www.w3.org/2000/svg">
<mask id="mask0_0_4749" style="mask-type:luminance" maskUnits="userSpaceOnUse" x="1" y="3" width="22" height="18">
<path fill-rule="evenodd" clip-rule="evenodd" d="M18.8568 3C21.1407 3 22.999 4.84937 22.999 7.12148L23 9.7896C23 9.99326 22.9192 10.1907 22.7749 10.3347C22.6316 10.4798 22.4362 10.561 22.2326 10.561C21.4273 10.561 20.7724 11.207 20.7724 12.001C20.7724 12.7951 21.4273 13.441 22.2326 13.441C22.6562 13.441 23 13.7866 23 14.2125V16.8785C23 19.1506 21.1418 21 18.8579 21H5.14214C2.85823 21 1 19.1506 1 16.8785V14.2125C1 13.7866 1.34381 13.441 1.76744 13.441C2.57274 13.441 3.22763 12.7951 3.22763 12.001C3.22763 11.2296 2.59935 10.6474 1.76744 10.6474C1.56381 10.6474 1.36837 10.5662 1.22512 10.4211C1.08084 10.2771 1 10.0797 1 9.876L1.00102 7.12148C1.00102 4.84937 2.85926 3 5.14316 3H18.8568ZM18.8568 4.54286H14.6594L14.6601 6.51895C14.6601 6.94478 14.3162 7.29038 13.8926 7.29038C13.469 7.29038 13.1252 6.94478 13.1252 6.51895L13.1246 4.54286H5.14316C3.70549 4.54286 2.53591 5.7 2.53591 7.12148L2.53488 9.19715C3.83135 9.51703 4.76251 10.6341 4.76251 12.001C4.76251 13.3814 3.81498 14.5457 2.53488 14.8841V16.8785C2.53488 18.3 3.70446 19.4571 5.14214 19.4571H13.1246L13.1252 17.9261C13.1252 17.4993 13.469 17.1547 13.8926 17.1547C14.3162 17.1547 14.6601 17.4993 14.6601 17.9261L14.6594 19.4571H18.8579C20.2955 19.4571 21.4651 18.3 21.4651 16.8785V14.8841C20.185 14.5457 19.2375 13.3814 19.2375 12.001C19.2375 10.6197 20.184 9.45635 21.4651 9.11795L21.4641 7.12148C21.4641 5.7 20.2945 4.54286 18.8568 4.54286ZM13.8926 8.66178C14.3162 8.66178 14.6601 9.00737 14.6601 9.4332V14.3919C14.6601 14.8178 14.3162 15.1634 13.8926 15.1634C13.469 15.1634 13.1252 14.8178 13.1252 14.3919V9.4332C13.1252 9.00737 13.469 8.66178 13.8926 8.66178Z" fill="white"/>
</mask>
<g mask="url(#mask0_0_4749)">
<rect width="24" height="24" fill="black"/>
</g>
</svg>
