<svg width="24" height="24" viewBox="0 0 24 24" fill="none" xmlns="http://www.w3.org/2000/svg">
<mask id="mask0_0_4369" style="mask-type:luminance" maskUnits="userSpaceOnUse" x="2" y="1" width="20" height="22">
<path fill-rule="evenodd" clip-rule="evenodd" d="M16.5107 3.3305C16.181 2.36855 15.3205 1.75073 14.3456 1.75073H10.1126L9.94188 1.75708C8.98197 1.82863 8.16162 2.49882 7.90958 3.44143L7.65203 4.71977L7.6245 4.81708C7.53196 5.06734 7.29135 5.23973 7.01764 5.23973H3.75024L3.63362 5.24646C3.13628 5.30423 2.75024 5.7269 2.75024 6.23973C2.75024 6.79202 3.19796 7.23973 3.75024 7.23973L7.01764 7.23973H17.4406L20.7082 7.23973L20.8249 7.233C21.3222 7.17524 21.7082 6.75257 21.7082 6.23973C21.7082 5.68745 21.2605 5.23973 20.7082 5.23973H17.4406L17.3398 5.23184C17.0761 5.19021 16.86 4.98797 16.8062 4.71937L16.5633 3.50377L16.5107 3.3305ZM14.875 5.23973L14.845 5.11169L14.6166 3.95804C14.5893 3.85603 14.5078 3.78007 14.4077 3.75759L14.3456 3.75073H10.1126C10.0107 3.75073 9.91942 3.80507 9.87767 3.85755L9.85626 3.89569L9.61318 5.11209C9.60457 5.15506 9.59495 5.19762 9.58435 5.23973H14.875ZM19.4053 8.47147C19.9165 8.51268 20.3068 8.93144 20.3244 9.43181L20.3101 9.69136L19.9907 13.5048L19.6833 16.9367L19.5642 18.1656L19.4852 18.9281C19.4769 19.0048 19.4688 19.0789 19.4609 19.1503C19.255 21.0103 17.9958 22.18 16.127 22.2141C13.4092 22.263 10.7966 22.2625 8.25948 22.209C6.44 22.1718 5.19936 20.9893 4.99702 19.1573L4.83727 17.5982L4.638 15.4496L4.40433 12.7676L4.13716 9.54837C4.0929 8.99786 4.5033 8.51571 5.05381 8.47145C5.565 8.43035 6.01724 8.78128 6.11468 9.27239L6.14642 9.58198L6.52499 14.0829L6.70386 16.0858L6.88392 17.9738L6.9849 18.9375C7.07895 19.789 7.50291 20.1931 8.30103 20.2095C10.8118 20.2624 13.3984 20.2629 16.0907 20.2144C16.946 20.1988 17.3769 19.7986 17.4731 18.9299L17.6317 17.383L17.8712 14.784L18.0621 12.5865L18.3282 9.38787C18.3694 8.87669 18.7882 8.48641 19.2885 8.4688L19.4053 8.47147Z" fill="white"/>
</mask>
<g mask="url(#mask0_0_4369)">
<rect width="24" height="24" fill="black"/>
</g>
</svg>
