<svg width="24" height="24" viewBox="0 0 24 24" fill="none" xmlns="http://www.w3.org/2000/svg">
<mask id="mask0_0_4534" style="mask-type:luminance" maskUnits="userSpaceOnUse" x="1" y="3" width="22" height="18">
<path fill-rule="evenodd" clip-rule="evenodd" d="M3.2 3C1.98497 3 1 3.89543 1 5V15C1 16.1046 1.98497 17 3.2 17H20.8C22.015 17 23 16.1046 23 15V5C23 3.89543 22.015 3 20.8 3H3.2ZM20.8 4.5H3.2C2.89624 4.5 2.65 4.72386 2.65 5V15C2.65 15.2761 2.89625 15.5 3.2 15.5H20.8C21.1038 15.5 21.35 15.2761 21.35 15V5C21.35 4.72386 21.1038 4.5 20.8 4.5ZM8.5 20C8.5 19.4477 8.8358 19 9.25 19H14.75C15.1642 19 15.5 19.4477 15.5 20C15.5 20.5523 15.1642 21 14.75 21H9.25C8.8358 21 8.5 20.5523 8.5 20Z" fill="white"/>
</mask>
<g mask="url(#mask0_0_4534)">
<rect width="24" height="24" fill="black"/>
</g>
</svg>
