<svg width="24" height="24" viewBox="0 0 24 24" fill="none" xmlns="http://www.w3.org/2000/svg">
<mask id="mask0_0_4412" style="mask-type:luminance" maskUnits="userSpaceOnUse" x="3" y="1" width="18" height="22">
<path fill-rule="evenodd" clip-rule="evenodd" d="M11.579 1.5C8.38793 1.5 5.80101 4.08691 5.80101 7.27803C5.80101 10.4692 8.38793 13.0561 11.579 13.0561C14.7702 13.0561 17.3571 10.4692 17.3571 7.27803C17.3571 4.08691 14.7702 1.5 11.579 1.5ZM11.579 3.5C13.6656 3.5 15.3571 5.19148 15.3571 7.27803C15.3571 9.36458 13.6656 11.0561 11.579 11.0561C9.4925 11.0561 7.80101 9.36458 7.80101 7.27803C7.80101 5.19148 9.4925 3.5 11.579 3.5ZM9.29474 14.7853C8.47834 14.8417 7.64867 14.9584 6.8303 15.133C5.20634 15.4661 3.89956 16.1355 3.32535 17.2839C3.10728 17.7361 2.99825 18.2176 3.00009 18.7051C2.99944 19.1874 3.10741 19.6688 3.31616 20.1091C3.86999 21.2495 5.03383 21.8756 6.5933 22.2187L7.33572 22.373C7.8189 22.4657 8.3141 22.5374 8.81381 22.5866L9.24843 22.6229C9.40734 22.6515 9.56725 22.6685 9.73879 22.6772L9.9567 22.6842L10.1969 22.6854C11.379 22.7505 12.6179 22.7314 13.8512 22.6269C14.509 22.5821 15.1738 22.496 15.8335 22.37L16.3271 22.2679C17.9975 21.9398 19.2612 21.3094 19.832 20.1107C20.2548 19.2217 20.2548 18.1902 19.8323 17.3017C19.2629 16.106 18.0158 15.4811 16.3109 15.1314C15.6621 14.9935 15.0017 14.8912 14.3364 14.8259L13.8542 14.7853C12.3373 14.6521 10.8116 14.6521 9.29474 14.7853ZM13.6792 16.7776L13.6968 16.779C14.4382 16.831 15.175 16.9346 15.902 17.0891C17.0466 17.3239 17.8098 17.7064 18.0263 18.1611C18.1902 18.5056 18.1902 18.9063 18.0261 19.2513C17.8239 19.6758 17.1408 20.0382 16.137 20.2642L15.917 20.3105C15.1704 20.4764 14.4369 20.5824 13.6986 20.6328C12.541 20.7308 11.3944 20.7484 10.2507 20.6868L9.84035 20.6798C9.73812 20.6746 9.6542 20.665 9.57836 20.6499L9.44975 20.6327C8.86207 20.593 8.27751 20.5172 7.69936 20.406L7.26699 20.316C6.11331 20.0907 5.34426 19.7071 5.11929 19.2439C5.04195 19.0806 4.99983 18.8928 5.00008 18.7027C4.99938 18.5133 5.04059 18.3313 5.1206 18.1653C5.33703 17.7327 6.15675 17.3128 7.23994 17.0906C7.97405 16.934 8.71043 16.8304 9.45136 16.7791C10.8702 16.6546 12.2787 16.6546 13.6792 16.7776Z" fill="white"/>
</mask>
<g mask="url(#mask0_0_4412)">
<rect width="24" height="24" fill="black"/>
</g>
</svg>
