<svg width="24" height="24" viewBox="0 0 24 24" fill="none" xmlns="http://www.w3.org/2000/svg">
<mask id="mask0_0_4576" style="mask-type:luminance" maskUnits="userSpaceOnUse" x="1" y="4" width="22" height="16">
<path fill-rule="evenodd" clip-rule="evenodd" d="M12 4C16.154 4 20.0777 5.82468 22.7644 9.00734C23.1214 9.42931 23.0664 10.0606 22.6419 10.4154C22.4537 10.5734 22.2247 10.65 21.9963 10.65C21.7096 10.65 21.425 10.5287 21.2261 10.2934C18.9224 7.56536 15.5593 6.00003 11.9999 6.00003C8.4406 6.00003 5.07746 7.56536 2.77375 10.294C2.57488 10.5293 2.29024 10.6507 2.00363 10.6507C1.77528 10.6507 1.5469 10.5733 1.35875 10.416C0.933482 10.0607 0.878553 9.43001 1.23552 9.00734C3.92294 5.82468 7.84597 4 12 4ZM9.99096 18C9.99096 16.896 10.891 16 12 16C13.1089 16 14.0091 16.896 14.0091 18C14.0091 19.104 13.1089 20 12 20C10.891 20 9.99096 19.104 9.99096 18ZM12 7.99999C9.03265 7.99999 6.23065 9.3033 4.3114 11.576C3.95447 11.9987 4.00936 12.6293 4.43463 12.9846C4.62278 13.142 4.85181 13.2193 5.08019 13.2193C5.36681 13.2193 5.65144 13.098 5.84967 12.8627C7.38523 11.0433 9.62733 9.99997 12 9.99997C14.3727 9.99997 16.6148 11.0433 18.151 12.8627C18.35 13.0986 18.6345 13.2193 18.9205 13.2193C19.1489 13.2193 19.3779 13.1427 19.566 12.9846C19.9913 12.6293 20.0462 11.998 19.6893 11.576C17.7693 9.30333 14.9673 7.99999 12 7.99999ZM7.38657 14.1453C8.53707 12.782 10.2186 12 12 12C13.7813 12 15.4629 12.782 16.6134 14.1453C16.9703 14.568 16.9155 15.1986 16.4902 15.554C16.302 15.7119 16.073 15.7886 15.8446 15.7886C15.5587 15.7886 15.274 15.668 15.0751 15.432C14.307 14.522 13.186 13.9999 12 13.9999C10.814 13.9999 9.69298 14.522 8.92482 15.432C8.72663 15.6673 8.44199 15.7886 8.15537 15.7886C7.92695 15.7886 7.69795 15.7113 7.50978 15.554C7.08451 15.1986 7.02958 14.568 7.38657 14.1453Z" fill="white"/>
</mask>
<g mask="url(#mask0_0_4576)">
<rect width="24" height="24" fill="black"/>
</g>
</svg>
